<?xml version="1.0" encoding="UTF-8"?>
<!DOCTYPE svg PUBLIC "-//W3C//DTD SVG 1.1//EN" "http://www.w3.org/Graphics/SVG/1.1/DTD/svg11.dtd">
<svg xmlns="http://www.w3.org/2000/svg" version="1.1" width="1024px" height="1189px" style="shape-rendering:geometricPrecision; text-rendering:geometricPrecision; image-rendering:optimizeQuality; fill-rule:evenodd; clip-rule:evenodd" xmlns:xlink="http://www.w3.org/1999/xlink">
<g><path style="opacity:0.017" fill="#000000" d="M 793.5,472.5 C 795.671,460.054 797.004,447.721 797.5,435.5C 797.155,424.703 795.155,414.37 791.5,404.5C 789.423,400.032 786.59,396.032 783,392.5C 782.024,386.222 779.69,380.555 776,375.5C 777.437,338.806 777.771,301.806 777,264.5C 772.592,236.622 764.592,209.955 753,184.5C 748.667,177.167 744.333,169.833 740,162.5C 735.288,157.457 730.955,152.123 727,146.5C 716.056,136.24 705.556,125.407 695.5,114C 682.593,105.096 670.26,95.4297 658.5,85C 651.658,81.0784 644.658,77.4117 637.5,74C 611.091,63.7727 584.424,54.7727 557.5,47C 549.845,46.3214 542.178,45.8214 534.5,45.5C 515.008,46.0816 495.342,46.5816 475.5,47C 455.21,50.4877 434.876,53.8211 414.5,57C 390.999,63.8351 368.332,72.8351 346.5,84C 319.739,98.9712 300.905,120.804 290,149.5C 288.234,158.057 286.401,166.557 284.5,175C 284.833,175.333 285.167,175.667 285.5,176C 283.551,180.739 281.551,185.239 279.5,189.5C 281.908,174.645 285.074,159.645 289,144.5C 297.878,124.463 310.712,107.463 327.5,93.5C 351.229,77.9799 376.563,65.8132 403.5,57C 426.587,53.537 449.587,49.537 472.5,45C 497.103,44.7093 521.77,44.0427 546.5,43C 554.599,44.029 562.599,45.3624 570.5,47C 572.926,48.1447 575.259,49.478 577.5,51C 583.213,52.1264 588.88,53.4598 594.5,55C 612.998,61.5424 631.332,68.5424 649.5,76C 654.023,80.0916 659.023,83.425 664.5,86C 669.109,90.3205 673.776,94.6538 678.5,99C 680.725,99.5611 682.725,100.561 684.5,102C 698.943,115.107 713.11,128.607 727,142.5C 731.003,149.655 736.003,155.989 742,161.5C 745.667,167.5 749.333,173.5 753,179.5C 756,187.167 759,194.833 762,202.5C 763.333,204.5 764.667,206.5 766,208.5C 770.836,226.006 775.17,243.673 779,261.5C 779.826,296.208 779.66,330.875 778.5,365.5C 778.735,373.039 781.235,379.706 786,385.5C 786.371,391.916 788.704,397.583 793,402.5C 799.592,425.277 800.259,448.277 795,471.5C 794.617,472.056 794.117,472.389 793.5,472.5 Z"/></g>
<g><path style="opacity:0.991" fill="#030800" d="M 791.5,404.5 C 788.776,402.283 786.109,399.783 783.5,397C 773.679,390.956 763.346,389.956 752.5,394C 748.275,395.696 744.108,397.529 740,399.5C 737.082,398.506 736.916,399.006 739.5,401C 736.08,402.746 732.913,404.913 730,407.5C 729.184,406.177 728.017,405.511 726.5,405.5C 726.103,404.475 725.437,404.308 724.5,405C 721.903,408.719 718.737,411.886 715,414.5C 713.919,412.233 712.419,412.066 710.5,414C 707,417.5 703.5,421 700,424.5C 697.413,429.261 695.413,434.261 694,439.5C 693.667,436.833 693.333,434.167 693,431.5C 692.174,434.737 690.84,437.737 689,440.5C 689.128,437.514 689.128,434.514 689,431.5C 687.844,435.123 686.844,438.789 686,442.5C 685.667,438.833 685.333,435.167 685,431.5C 684.163,435.714 682.83,439.714 681,443.5C 681.74,437.223 682.074,430.89 682,424.5C 681.046,429.56 679.88,434.56 678.5,439.5C 678.449,436.335 678.282,433.002 678,429.5C 677.061,432.121 676.228,434.788 675.5,437.5C 675.167,437.167 674.833,436.833 674.5,436.5C 675.624,430.552 675.79,424.552 675,418.5C 674.667,423.5 674.333,428.5 674,433.5C 673.055,426.702 672.222,420.035 671.5,413.5C 671.665,391.456 671.665,369.456 671.5,347.5C 670.5,346.5 669.5,345.5 668.5,344.5C 665.593,338.537 664.093,332.204 664,325.5C 663.825,329.211 663.325,332.878 662.5,336.5C 659.836,329.004 657.67,321.338 656,313.5C 655.506,315.134 655.34,316.801 655.5,318.5C 654.224,316.438 653.39,314.104 653,311.5C 652.683,313.301 652.016,313.634 651,312.5C 647.304,303.608 643.471,294.775 639.5,286C 639.667,285.5 639.833,285 640,284.5C 641,286.5 642,288.5 643,290.5C 641.091,283.046 638.924,275.546 636.5,268C 636.667,267.5 636.833,267 637,266.5C 638.667,270.5 640.333,274.5 642,278.5C 641.565,274.385 641.399,270.385 641.5,266.5C 642.558,267.6 643.392,268.934 644,270.5C 643.956,267.077 642.79,264.077 640.5,261.5C 640.643,259.738 640.309,258.071 639.5,256.5C 640.441,256.511 641.108,256.011 641.5,255C 636.186,240.264 632.853,225.097 631.5,209.5C 631.167,208.833 630.833,208.167 630.5,207.5C 629.338,209.824 628.171,212.158 627,214.5C 625.865,207.218 625.199,199.885 625,192.5C 621.985,195.683 618.818,198.683 615.5,201.5C 615.167,201.167 614.833,200.833 614.5,200.5C 616.601,197.632 618.101,194.632 619,191.5C 616.459,194.522 613.293,196.022 609.5,196C 610.833,194.667 612.167,193.333 613.5,192C 609.858,193.314 606.191,194.981 602.5,197C 599.228,198.723 595.894,199.223 592.5,198.5C 594.817,195.683 597.317,193.016 600,190.5C 600.667,189.833 600.667,189.167 600,188.5C 592.475,193.1 584.308,194.934 575.5,194C 576.833,193.333 578.167,192.667 579.5,192C 578.667,191.833 577.833,191.667 577,191.5C 572.17,192.459 567.336,192.959 562.5,193C 563.376,191.414 564.376,189.914 565.5,188.5C 565,188.167 564.5,187.833 564,187.5C 558.02,189.872 551.853,190.706 545.5,190C 545.167,189.667 544.833,189.333 544.5,189C 546.762,188.299 547.762,187.132 547.5,185.5C 545.446,187.194 543.112,188.361 540.5,189C 534.474,189.896 528.474,190.563 522.5,191C 531.157,182.822 530.157,181.489 519.5,187C 512.556,188.989 505.556,190.323 498.5,191C 500.67,189.414 503.004,188.08 505.5,187C 506.696,186.346 506.696,185.846 505.5,185.5C 497.503,190.498 488.836,192.998 479.5,193C 480.71,191.961 481.71,190.794 482.5,189.5C 477.112,191.555 471.612,193.222 466,194.5C 465.833,194.167 465.667,193.833 465.5,193.5C 467.655,192.59 469.655,191.423 471.5,190C 463.229,191.394 455.062,193.56 447,196.5C 446.5,196.167 446,195.833 445.5,195.5C 447.293,192.749 448.959,189.916 450.5,187C 441.789,190.129 432.956,193.296 424,196.5C 423.5,196.333 423,196.167 422.5,196C 425.167,194 427.833,192 430.5,190C 419.811,195.565 408.478,199.565 396.5,202C 401.294,196.2 406.96,191.533 413.5,188C 414.696,187.346 414.696,186.846 413.5,186.5C 402.379,194.722 391.545,197.056 381,193.5C 378.775,193.565 376.608,193.898 374.5,194.5C 373.949,192.587 373.782,190.587 374,188.5C 370.459,189.872 366.959,189.706 363.5,188C 364.167,187.333 364.833,186.667 365.5,186C 357.286,183.53 348.953,181.53 340.5,180C 334.185,179.537 328.352,181.037 323,184.5C 322.383,183.551 322.549,182.718 323.5,182C 322.5,181.333 321.5,181.333 320.5,182C 311.875,193.968 304.042,206.468 297,219.5C 289.276,237.339 281.942,255.339 275,273.5C 270.897,282.206 266.397,290.706 261.5,299C 265.142,297.686 268.809,296.019 272.5,294C 286.308,291.261 299.641,292.761 312.5,298.5C 319.086,301.126 325.419,304.293 331.5,308C 335.503,311.155 338.503,314.988 340.5,319.5C 340.343,320.873 340.51,322.207 341,323.5C 343.669,325.34 346.169,327.34 348.5,329.5C 348.291,330.086 347.957,330.586 347.5,331C 349.949,333.897 351.615,337.231 352.5,341C 350.122,341.974 350.456,342.641 353.5,343C 352.892,343.87 352.059,344.37 351,344.5C 330.277,336.931 308.777,330.765 286.5,326C 279.5,325.333 272.5,325.333 265.5,326C 258.724,327.562 252.057,329.395 245.5,331.5C 245.703,333.39 245.037,334.89 243.5,336C 245.457,338.121 245.957,340.621 245,343.5C 242.451,337.678 241.951,331.678 243.5,325.5C 248.269,314.45 252.436,303.117 256,291.5C 259.153,279.557 261.986,267.557 264.5,255.5C 264.938,255.565 265.272,255.399 265.5,255C 264.672,254.085 263.672,253.419 262.5,253C 262.833,252.667 263.167,252.333 263.5,252C 262.437,250.812 261.103,250.312 259.5,250.5C 259.387,247.951 260.054,245.618 261.5,243.5C 261.013,242.554 260.68,241.554 260.5,240.5C 261.597,237.71 262.597,234.877 263.5,232C 261.437,229.726 261.437,227.226 263.5,224.5C 267.172,223.769 267.839,222.269 265.5,220C 266.849,216.972 268.182,213.972 269.5,211C 269.561,209.289 268.894,207.956 267.5,207C 268.26,205.559 268.926,204.059 269.5,202.5C 271.576,201.9 273.576,201.567 275.5,201.5C 276.859,199.694 276.525,198.194 274.5,197C 275.249,195.266 275.749,193.433 276,191.5C 276.71,190.027 277.876,189.36 279.5,189.5C 281.551,185.239 283.551,180.739 285.5,176C 285.167,175.667 284.833,175.333 284.5,175C 286.401,166.557 288.234,158.057 290,149.5C 300.905,120.804 319.739,98.9712 346.5,84C 368.332,72.8351 390.999,63.8351 414.5,57C 434.876,53.8211 455.21,50.4877 475.5,47C 495.342,46.5816 515.008,46.0816 534.5,45.5C 542.178,45.8214 549.845,46.3214 557.5,47C 584.424,54.7727 611.091,63.7727 637.5,74C 644.658,77.4117 651.658,81.0784 658.5,85C 670.26,95.4297 682.593,105.096 695.5,114C 705.556,125.407 716.056,136.24 727,146.5C 730.955,152.123 735.288,157.457 740,162.5C 744.333,169.833 748.667,177.167 753,184.5C 764.592,209.955 772.592,236.622 777,264.5C 777.771,301.806 777.437,338.806 776,375.5C 779.69,380.555 782.024,386.222 783,392.5C 786.59,396.032 789.423,400.032 791.5,404.5 Z"/></g>
<g><path style="opacity:1" fill="#a46929" d="M 642.5,258.5 C 644.099,259.799 644.599,261.465 644,263.5C 642.991,261.975 642.491,260.308 642.5,258.5 Z"/></g>
<g><path style="opacity:1" fill="#794e20" d="M 640.5,261.5 C 642.79,264.077 643.956,267.077 644,270.5C 643.392,268.934 642.558,267.6 641.5,266.5C 640.549,265.081 640.216,263.415 640.5,261.5 Z"/></g>
<g><path style="opacity:1" fill="#e49b4b" d="M 312.5,298.5 C 322.329,300.423 330.996,305.09 338.5,312.5C 339.778,314.799 341.111,317.132 342.5,319.5C 342.03,320.463 341.363,320.463 340.5,319.5C 338.503,314.988 335.503,311.155 331.5,308C 325.419,304.293 319.086,301.126 312.5,298.5 Z"/></g>
<g><path style="opacity:1" fill="#1b1006" d="M 356.5,331.5 C 356.665,334.518 356.498,337.518 356,340.5C 355.057,335.84 354.223,331.173 353.5,326.5C 354.937,327.318 355.937,328.985 356.5,331.5 Z"/></g>
<g><path style="opacity:1" fill="#df9a49" d="M 668.5,344.5 C 666.706,343.07 665.206,340.737 664,337.5C 662.535,338.369 661.369,337.869 660.5,336C 658.67,330.185 657.003,324.351 655.5,318.5C 655.34,316.801 655.506,315.134 656,313.5C 657.67,321.338 659.836,329.004 662.5,336.5C 663.325,332.878 663.825,329.211 664,325.5C 664.093,332.204 665.593,338.537 668.5,344.5 Z"/></g>
<g><path style="opacity:1" fill="#130a03" d="M 358.5,336.5 C 359.167,338.833 359.833,341.167 360.5,343.5C 360.607,345.379 360.107,345.712 359,344.5C 358.503,341.854 358.336,339.187 358.5,336.5 Z"/></g>
<g><path style="opacity:1" fill="#d78f45" d="M 353.5,326.5 C 354.223,331.173 355.057,335.84 356,340.5C 356.498,337.518 356.665,334.518 356.5,331.5C 357.167,333.167 357.833,334.833 358.5,336.5C 358.336,339.187 358.503,341.854 359,344.5C 360.107,345.712 360.607,345.379 360.5,343.5C 360.674,335.527 361.174,335.527 362,343.5C 364.715,343.954 366.548,345.454 367.5,348C 367.167,348.5 366.833,349 366.5,349.5C 365.852,347.851 364.852,346.518 363.5,345.5C 362.167,346.5 360.833,347.5 359.5,348.5C 361.12,351.404 362.453,354.404 363.5,357.5C 356.75,348.567 352.084,338.567 349.5,327.5C 349.693,323.551 350.193,323.551 351,327.5C 351.333,326.5 351.667,325.5 352,324.5C 352.278,325.416 352.778,326.082 353.5,326.5 Z"/></g>
<g><path style="opacity:1" fill="#e59848" d="M 671.5,347.5 C 671.665,369.456 671.665,391.456 671.5,413.5C 670.629,405.846 669.963,393.512 669.5,376.5C 670.091,366.677 670.758,357.01 671.5,347.5 Z"/></g>
<g><path style="opacity:0.998" fill="#cc843e" d="M 785.5,486.5 C 787.399,478.736 789.065,470.902 790.5,463C 790.333,461.833 790.167,460.667 790,459.5C 788.582,462.001 787.582,461.668 787,458.5C 786.465,460.271 785.631,460.604 784.5,459.5C 784.678,451.598 783.845,451.598 782,459.5C 781.536,458.906 781.369,458.239 781.5,457.5C 783.078,448.915 783.745,440.249 783.5,431.5C 784.328,435.801 784.995,442.801 785.5,452.5C 790.207,454.885 790.207,456.385 785.5,457C 787.269,458.019 788.936,458.186 790.5,457.5C 792.919,444.866 793.085,432.199 791,419.5C 790.667,422.5 790.333,425.5 790,428.5C 788.757,429.336 787.59,429.003 786.5,427.5C 787.498,424.972 788.331,424.972 789,427.5C 789.483,426.552 789.649,425.552 789.5,424.5C 788.448,424.649 787.448,424.483 786.5,424C 787.731,422.817 787.731,421.651 786.5,420.5C 784.167,421.832 782.834,423.832 782.5,426.5C 780.527,423.861 778.194,421.527 775.5,419.5C 775.897,418.475 776.563,418.308 777.5,419C 778.667,420.167 779.833,421.333 781,422.5C 782.487,421.747 782.654,420.914 781.5,420C 782.738,420.077 783.738,419.911 784.5,419.5C 783.572,418.232 783.405,416.899 784,415.5C 785,416.833 786,418.167 787,419.5C 788.011,418.663 789.178,418.33 790.5,418.5C 790.368,409.231 786.368,402.231 778.5,397.5C 777.205,398.098 775.872,398.598 774.5,399C 776.269,400.019 777.936,400.186 779.5,399.5C 780.934,400.936 782.1,402.602 783,404.5C 783.333,404.167 783.667,403.833 784,403.5C 786.141,406.606 787.475,409.939 788,413.5C 787.333,412.167 786.667,412.167 786,413.5C 785.88,408.608 784.546,408.275 782,412.5C 781.028,410.695 779.861,409.028 778.5,407.5C 778.846,406.304 779.346,406.304 780,407.5C 780.667,406.167 780.667,404.833 780,403.5C 778.989,404.337 777.822,404.67 776.5,404.5C 776.721,399.938 775.221,399.272 772,402.5C 772.195,400.874 772.195,399.207 772,397.5C 770.026,400.118 768.193,399.952 766.5,397C 768.5,396.667 770.5,396.333 772.5,396C 766.099,394.004 759.766,394.338 753.5,397C 757.272,397.611 757.272,398.611 753.5,400C 755.851,402.259 755.185,403.759 751.5,404.5C 750.756,403.009 750.09,401.509 749.5,400C 751.595,399.444 751.762,398.944 750,398.5C 746.87,399.984 743.703,401.317 740.5,402.5C 753.529,392.449 767.529,390.949 782.5,398C 787.337,402.502 790.503,408.002 792,414.5C 795.045,430.808 795.045,447.142 792,463.5C 790.764,471.565 788.597,479.232 785.5,486.5 Z"/></g>
<g><path style="opacity:1" fill="#e4994a" d="M 355.5,400.5 C 356.043,400.56 356.376,400.893 356.5,401.5C 349.51,419.215 340.843,435.882 330.5,451.5C 339.62,434.926 347.953,417.926 355.5,400.5 Z"/></g>
<g><path style="opacity:0.994" fill="#ba7537" d="M 783.5,431.5 C 782.549,430.081 782.216,428.415 782.5,426.5C 782.834,423.832 784.167,421.832 786.5,420.5C 787.731,421.651 787.731,422.817 786.5,424C 787.448,424.483 788.448,424.649 789.5,424.5C 789.649,425.552 789.483,426.552 789,427.5C 788.331,424.972 787.498,424.972 786.5,427.5C 787.59,429.003 788.757,429.336 790,428.5C 790.333,425.5 790.667,422.5 791,419.5C 793.085,432.199 792.919,444.866 790.5,457.5C 788.936,458.186 787.269,458.019 785.5,457C 790.207,456.385 790.207,454.885 785.5,452.5C 784.995,442.801 784.328,435.801 783.5,431.5 Z"/></g>
<g><path style="opacity:1" fill="#0d0801" d="M 775.5,419.5 C 778.194,421.527 780.527,423.861 782.5,426.5C 782.216,428.415 782.549,430.081 783.5,431.5C 783.745,440.249 783.078,448.915 781.5,457.5C 776.957,476.624 770.123,494.957 761,512.5C 755.068,521.766 747.235,528.932 737.5,534C 736.167,534.667 734.833,534.667 733.5,534C 751.34,523.651 763.006,508.484 768.5,488.5C 773.553,475.32 777.22,461.654 779.5,447.5C 779.666,441.824 779.499,436.157 779,430.5C 777.988,426.992 775.822,424.658 772.5,423.5C 765.223,421.521 758.557,423.021 752.5,428C 756.396,432.627 759.063,437.794 760.5,443.5C 761.005,446.841 761.172,450.174 761,453.5C 758.992,447.314 756.492,441.314 753.5,435.5C 752.207,433.704 750.707,432.037 749,430.5C 741.667,436.5 735,443.167 729,450.5C 729.525,452.574 731.025,453.907 733.5,454.5C 741.029,462.431 745.695,471.764 747.5,482.5C 747.942,489.987 747.108,497.32 745,504.5C 742.921,510.747 738.754,514.747 732.5,516.5C 727.714,518.155 722.714,518.988 717.5,519C 712.982,523.09 707.982,526.423 702.5,529C 700.08,529.687 697.913,529.187 696,527.5C 694.826,522.06 695.826,517.06 699,512.5C 705.224,507.622 709.89,501.622 713,494.5C 712.999,487.651 712.499,480.818 711.5,474C 714.393,464.044 719.226,455.21 726,447.5C 732.167,441.333 738.333,435.167 744.5,429C 750.556,424.304 757.223,420.637 764.5,418C 768.402,417.112 772.069,417.612 775.5,419.5 Z"/></g>
<g><path style="opacity:1" fill="#a05213" d="M 753.5,435.5 C 744.865,439.803 738.198,446.136 733.5,454.5C 731.025,453.907 729.525,452.574 729,450.5C 735,443.167 741.667,436.5 749,430.5C 750.707,432.037 752.207,433.704 753.5,435.5 Z"/></g>
<g><path style="opacity:1" fill="#e17320" d="M 772.5,423.5 C 775.822,424.658 777.988,426.992 779,430.5C 779.499,436.157 779.666,441.824 779.5,447.5C 778.673,442.349 778.173,437.016 778,431.5C 776.291,428.09 774.458,425.424 772.5,423.5 Z"/></g>
<g><path style="opacity:1" fill="#9f5415" d="M 772.5,423.5 C 774.458,425.424 776.291,428.09 778,431.5C 778.173,437.016 778.673,442.349 779.5,447.5C 777.22,461.654 773.553,475.32 768.5,488.5C 768.666,482.824 768.499,477.157 768,471.5C 766.27,461.188 763.77,451.855 760.5,443.5C 759.063,437.794 756.396,432.627 752.5,428C 758.557,423.021 765.223,421.521 772.5,423.5 Z"/></g>
<g><path style="opacity:1" fill="#120b02" d="M 406.5,528.5 C 404.143,528.663 401.81,528.497 399.5,528C 405.901,525.477 411.568,521.977 416.5,517.5C 420.539,515.079 422.206,511.413 421.5,506.5C 421.439,503.097 420.939,499.764 420,496.5C 417.987,492.167 416.32,487.834 415,483.5C 421.839,492.35 424.839,502.35 424,513.5C 421.116,521.869 415.283,526.869 406.5,528.5 Z"/></g>
<g><path style="opacity:0.117" fill="#090500" d="M 264.5,255.5 C 261.986,267.557 259.153,279.557 256,291.5C 252.436,303.117 248.269,314.45 243.5,325.5C 241.951,331.678 242.451,337.678 245,343.5C 245.957,340.621 245.457,338.121 243.5,336C 245.037,334.89 245.703,333.39 245.5,331.5C 252.057,329.395 258.724,327.562 265.5,326C 272.5,325.333 279.5,325.333 286.5,326C 308.777,330.765 330.277,336.931 351,344.5C 352.059,344.37 352.892,343.87 353.5,343C 350.456,342.641 350.122,341.974 352.5,341C 351.615,337.231 349.949,333.897 347.5,331C 347.957,330.586 348.291,330.086 348.5,329.5C 346.169,327.34 343.669,325.34 341,323.5C 340.51,322.207 340.343,320.873 340.5,319.5C 341.363,320.463 342.03,320.463 342.5,319.5C 341.111,317.132 339.778,314.799 338.5,312.5C 339.794,313.29 340.961,314.29 342,315.5C 344.275,319.732 346.775,323.732 349.5,327.5C 352.084,338.567 356.75,348.567 363.5,357.5C 364.022,360.568 364.855,363.568 366,366.5C 366.667,370.167 366.667,373.833 366,377.5C 362.271,385.062 358.771,392.729 355.5,400.5C 347.953,417.926 339.62,434.926 330.5,451.5C 322.444,460.938 316.444,471.605 312.5,483.5C 311.213,487.268 311.213,490.935 312.5,494.5C 313.25,499.582 315.083,504.249 318,508.5C 323.751,514.092 329.918,519.092 336.5,523.5C 328.074,522.621 320.74,518.954 314.5,512.5C 306.22,496.651 306.553,480.984 315.5,465.5C 321.244,458.354 326.244,450.687 330.5,442.5C 332.892,439.402 335.058,436.069 337,432.5C 345.972,414.226 354.639,395.893 363,377.5C 364.036,366.605 361.036,356.939 354,348.5C 347.622,344.704 340.789,341.87 333.5,340C 317.061,334.779 300.395,330.446 283.5,327C 270.49,325.723 258.156,327.89 246.5,333.5C 247,340.706 248,347.706 249.5,354.5C 250.844,362.9 252.511,371.234 254.5,379.5C 254.666,386.508 254.5,393.508 254,400.5C 249.795,421.522 246.629,442.688 244.5,464C 245.451,481.536 246.785,499.036 248.5,516.5C 252.275,551.645 257.109,586.645 263,621.5C 266.371,635.319 270.204,648.986 274.5,662.5C 273.761,662.369 273.094,662.536 272.5,663C 279.157,680.572 287.657,697.406 298,713.5C 299.314,716.624 300.48,719.791 301.5,723C 300.265,731.792 299.431,740.625 299,749.5C 298.75,752.754 297.75,755.754 296,758.5C 291.076,761.944 285.576,763.944 279.5,764.5C 268.032,767.902 257.032,772.402 246.5,778C 245.207,778.49 243.873,778.657 242.5,778.5C 245.531,776.675 248.531,774.508 251.5,772C 259.064,769.403 266.397,766.403 273.5,763C 279.12,761.46 284.787,760.126 290.5,759C 291.274,756.56 292.94,755.227 295.5,755C 298.832,743.676 299.666,732.176 298,720.5C 294.903,710.972 290.237,702.306 284,694.5C 271.973,667.811 262.973,640.144 257,611.5C 252.483,577.877 248.149,544.21 244,510.5C 239.529,474.095 241.529,438.095 250,402.5C 250.667,394.833 250.667,387.167 250,379.5C 246.999,365.749 243.999,352.082 241,338.5C 239.49,327.87 241.823,318.203 248,309.5C 253.003,294.508 257.003,279.174 260,263.5C 260.895,261.196 261.729,258.862 262.5,256.5C 263.183,256.137 263.85,255.804 264.5,255.5 Z"/></g>
<g><path style="opacity:1" fill="#c8671e" d="M 315.5,465.5 C 306.553,480.984 306.22,496.651 314.5,512.5C 309.087,505.556 306.421,497.556 306.5,488.5C 307.367,479.88 310.367,472.213 315.5,465.5 Z"/></g>
<g><path style="opacity:1" fill="#bd7838" d="M 342.5,404.5 C 343.738,404.81 343.738,405.31 342.5,406C 339.851,406.452 337.351,407.286 335,408.5C 333.079,413.339 330.912,418.006 328.5,422.5C 313.371,451.421 298.205,480.421 283,509.5C 281.949,511.627 280.449,513.293 278.5,514.5C 276.613,516.133 275.113,515.8 274,513.5C 267.112,500.247 264.278,486.081 265.5,471C 265.651,463.485 265.984,455.985 266.5,448.5C 269.735,436.686 272.735,424.686 275.5,412.5C 275.833,412.167 276.167,411.833 276.5,411.5C 282.187,412.419 287.854,413.419 293.5,414.5C 310.303,413.55 326.636,410.217 342.5,404.5 Z"/></g>
<g><path style="opacity:1" fill="#a05416" d="M 330.5,442.5 C 330.539,441.417 330.873,440.417 331.5,439.5C 330.5,438.167 329.5,436.833 328.5,435.5C 330.385,434.803 330.718,433.803 329.5,432.5C 331.006,431.253 332.506,431.253 334,432.5C 338.676,426.812 342.009,420.479 344,413.5C 343.085,414.328 342.419,415.328 342,416.5C 341.581,415.328 340.915,414.328 340,413.5C 338.489,416.824 337.989,420.157 338.5,423.5C 337.248,425.001 336.248,426.668 335.5,428.5C 334.511,426.412 334.844,424.412 336.5,422.5C 336.12,420.979 335.954,419.313 336,417.5C 335.257,420.511 333.924,423.178 332,425.5C 331.578,423.574 330.411,422.574 328.5,422.5C 330.912,418.006 333.079,413.339 335,408.5C 337.351,407.286 339.851,406.452 342.5,406C 343.738,405.31 343.738,404.81 342.5,404.5C 342.918,403.778 343.584,403.278 344.5,403C 341.881,403.083 339.214,403.25 336.5,403.5C 339.542,401.776 341.375,399.109 342,395.5C 342.694,391.446 342.527,387.446 341.5,383.5C 346.405,385.299 351.405,386.466 356.5,387C 351.594,384.058 346.928,380.891 342.5,377.5C 340.572,375.526 338.239,374.026 335.5,373C 333.406,369.071 330.739,365.571 327.5,362.5C 321.12,360.944 315.787,358.611 311.5,355.5C 316.313,356.493 320.98,357.993 325.5,360C 333.045,363.604 340.378,367.437 347.5,371.5C 335.843,360.173 321.843,353.34 305.5,351C 292.618,348.116 282.951,352.282 276.5,363.5C 278.167,362.167 279.833,360.833 281.5,359.5C 282.767,358.913 283.767,358.913 284.5,359.5C 283.559,361.772 282.226,363.772 280.5,365.5C 280.624,366.107 280.957,366.44 281.5,366.5C 277.405,368.759 274.072,371.926 271.5,376C 272.308,376.308 272.975,376.808 273.5,377.5C 272.13,380.572 271.13,383.739 270.5,387C 271.167,387.667 271.833,387.667 272.5,387C 273.163,385.482 274.163,384.315 275.5,383.5C 275.08,388.663 276.08,393.496 278.5,398C 278.272,398.399 277.938,398.565 277.5,398.5C 276.761,398.369 276.094,398.536 275.5,399C 279.553,406.561 285.553,411.728 293.5,414.5C 287.854,413.419 282.187,412.419 276.5,411.5C 276.167,411.833 275.833,412.167 275.5,412.5C 272.735,424.686 269.735,436.686 266.5,448.5C 266.631,447.761 266.464,447.094 266,446.5C 265.612,447.428 264.945,448.095 264,448.5C 262.441,447.971 260.941,447.304 259.5,446.5C 258.289,447.274 258.289,448.107 259.5,449C 256.895,449.026 255.729,450.193 256,452.5C 258.687,449.695 259.687,450.029 259,453.5C 258.333,454.167 257.667,454.833 257,455.5C 255.951,453.893 254.451,453.227 252.5,453.5C 251.947,457.456 251.114,457.456 250,453.5C 248.956,454.623 248.29,455.956 248,457.5C 247.667,456.833 247.333,456.167 247,455.5C 246.333,464.167 246.333,472.833 247,481.5C 247.333,481.833 247.667,482.167 248,482.5C 248.851,479.388 250.017,479.054 251.5,481.5C 252.308,481.192 252.975,480.692 253.5,480C 250.621,476.097 251.454,472.93 256,470.5C 256.5,470.667 257,470.833 257.5,471C 256.386,472.449 255.386,473.783 254.5,475C 255.167,476.333 256.167,477.333 257.5,478C 256.5,479 255.5,480 254.5,481C 254.833,482 255.167,483 255.5,484C 253.905,483.383 252.572,483.716 251.5,485C 252.5,485.333 253.5,485.667 254.5,486C 252.842,486.725 252.342,487.892 253,489.5C 253.333,489.167 253.667,488.833 254,488.5C 254.667,489.5 254.667,490.5 254,491.5C 252.817,490.269 251.651,490.269 250.5,491.5C 251.247,491.736 252.08,492.07 253,492.5C 253.667,493.167 253.667,493.833 253,494.5C 252,493.167 251,493.167 250,494.5C 249.333,491.833 248.667,489.167 248,486.5C 247.968,492.158 248.301,497.825 249,503.5C 249.333,503.167 249.667,502.833 250,502.5C 251.427,504.705 251.927,506.872 251.5,509C 253.776,510.03 254.443,511.53 253.5,513.5C 252.749,512.624 252.249,511.624 252,510.5C 251.667,511.167 251.333,511.833 251,512.5C 250.667,510.5 250.333,508.5 250,506.5C 249.821,510.025 249.321,513.359 248.5,516.5C 246.785,499.036 245.451,481.536 244.5,464C 246.629,442.688 249.795,421.522 254,400.5C 254.5,393.508 254.666,386.508 254.5,379.5C 255.124,379.083 255.457,378.416 255.5,377.5C 253.667,368.833 251.833,360.167 250,351.5C 249.517,352.448 249.351,353.448 249.5,354.5C 248,347.706 247,340.706 246.5,333.5C 258.156,327.89 270.49,325.723 283.5,327C 300.395,330.446 317.061,334.779 333.5,340C 340.789,341.87 347.622,344.704 354,348.5C 361.036,356.939 364.036,366.605 363,377.5C 354.639,395.893 345.972,414.226 337,432.5C 335.058,436.069 332.892,439.402 330.5,442.5 Z"/></g>
<g><path style="opacity:1" fill="#110701" d="M 277.5,398.5 C 286.356,411.23 298.022,414.897 312.5,409.5C 320.753,408.437 328.753,406.437 336.5,403.5C 339.214,403.25 341.881,403.083 344.5,403C 343.584,403.278 342.918,403.778 342.5,404.5C 326.636,410.217 310.303,413.55 293.5,414.5C 285.553,411.728 279.553,406.561 275.5,399C 276.094,398.536 276.761,398.369 277.5,398.5 Z"/></g>
<g><path style="opacity:1" fill="#d7bb91" d="M 341.5,383.5 C 342.527,387.446 342.694,391.446 342,395.5C 341.375,399.109 339.542,401.776 336.5,403.5C 328.753,406.437 320.753,408.437 312.5,409.5C 306.611,409.55 300.944,408.884 295.5,407.5C 310.279,406.886 317.946,399.053 318.5,384C 317.849,380.435 317.349,376.935 317,373.5C 325.525,376.186 333.692,379.52 341.5,383.5 Z"/></g>
<g><path style="opacity:1" fill="#c77f3b" d="M 295.5,407.5 C 300.944,408.884 306.611,409.55 312.5,409.5C 298.022,414.897 286.356,411.23 277.5,398.5C 277.938,398.565 278.272,398.399 278.5,398C 276.08,393.496 275.08,388.663 275.5,383.5C 276.128,380.91 277.295,378.577 279,376.5C 279.72,374.745 280.887,373.911 282.5,374C 278.776,381.011 278.61,388.177 282,395.5C 284.806,401.477 289.306,405.477 295.5,407.5 Z"/></g>
<g><path style="opacity:1" fill="#190d01" d="M 347.5,371.5 C 349.196,371.685 350.529,372.519 351.5,374C 349.588,374.279 348.254,373.446 347.5,371.5 Z"/></g>
<g><path style="opacity:0.792" fill="#d06b1e" d="M 254.5,379.5 C 252.511,371.234 250.844,362.9 249.5,354.5C 249.351,353.448 249.517,352.448 250,351.5C 251.833,360.167 253.667,368.833 255.5,377.5C 255.457,378.416 255.124,379.083 254.5,379.5 Z"/></g>
<g><path style="opacity:1" fill="#070900" d="M 342.5,377.5 C 346.928,380.891 351.594,384.058 356.5,387C 351.405,386.466 346.405,385.299 341.5,383.5C 333.692,379.52 325.525,376.186 317,373.5C 317.349,376.935 317.849,380.435 318.5,384C 317.946,399.053 310.279,406.886 295.5,407.5C 289.306,405.477 284.806,401.477 282,395.5C 278.61,388.177 278.776,381.011 282.5,374C 280.887,373.911 279.72,374.745 279,376.5C 277.295,378.577 276.128,380.91 275.5,383.5C 274.163,384.315 273.163,385.482 272.5,387C 271.833,387.667 271.167,387.667 270.5,387C 271.13,383.739 272.13,380.572 273.5,377.5C 272.975,376.808 272.308,376.308 271.5,376C 274.072,371.926 277.405,368.759 281.5,366.5C 293.878,363.685 306.212,364.185 318.5,368C 326.858,370.349 334.858,373.515 342.5,377.5 Z"/></g>
<g><path style="opacity:1" fill="#180700" d="M 276.5,363.5 C 276.539,364.756 276.039,365.756 275,366.5C 274.415,365.002 274.915,364.002 276.5,363.5 Z"/></g>
<g><path style="opacity:1" fill="#bf7838" d="M 311.5,355.5 C 315.787,358.611 321.12,360.944 327.5,362.5C 330.739,365.571 333.406,369.071 335.5,373C 338.239,374.026 340.572,375.526 342.5,377.5C 334.858,373.515 326.858,370.349 318.5,368C 306.212,364.185 293.878,363.685 281.5,366.5C 280.957,366.44 280.624,366.107 280.5,365.5C 282.226,363.772 283.559,361.772 284.5,359.5C 283.767,358.913 282.767,358.913 281.5,359.5C 284.04,356.393 287.373,354.56 291.5,354C 298.418,353.071 305.085,353.571 311.5,355.5 Z"/></g>
<g><path style="opacity:1" fill="#100801" d="M 347.5,371.5 C 340.378,367.437 333.045,363.604 325.5,360C 320.98,357.993 316.313,356.493 311.5,355.5C 305.085,353.571 298.418,353.071 291.5,354C 287.373,354.56 284.04,356.393 281.5,359.5C 279.833,360.833 278.167,362.167 276.5,363.5C 282.951,352.282 292.618,348.116 305.5,351C 321.843,353.34 335.843,360.173 347.5,371.5 Z"/></g>
<g><path style="opacity:1" fill="#bd7838" d="M 482.5,189.5 C 481.71,190.794 480.71,191.961 479.5,193C 488.836,192.998 497.503,190.498 505.5,185.5C 506.696,185.846 506.696,186.346 505.5,187C 503.004,188.08 500.67,189.414 498.5,191C 505.556,190.323 512.556,188.989 519.5,187C 530.157,181.489 531.157,182.822 522.5,191C 528.474,190.563 534.474,189.896 540.5,189C 543.112,188.361 545.446,187.194 547.5,185.5C 547.762,187.132 546.762,188.299 544.5,189C 544.833,189.333 545.167,189.667 545.5,190C 551.853,190.706 558.02,189.872 564,187.5C 564.5,187.833 565,188.167 565.5,188.5C 564.376,189.914 563.376,191.414 562.5,193C 567.336,192.959 572.17,192.459 577,191.5C 577.833,191.667 578.667,191.833 579.5,192C 578.167,192.667 576.833,193.333 575.5,194C 584.308,194.934 592.475,193.1 600,188.5C 600.667,189.167 600.667,189.833 600,190.5C 597.317,193.016 594.817,195.683 592.5,198.5C 595.894,199.223 599.228,198.723 602.5,197C 606.191,194.981 609.858,193.314 613.5,192C 612.167,193.333 610.833,194.667 609.5,196C 613.293,196.022 616.459,194.522 619,191.5C 618.101,194.632 616.601,197.632 614.5,200.5C 614.833,200.833 615.167,201.167 615.5,201.5C 618.818,198.683 621.985,195.683 625,192.5C 625.199,199.885 625.865,207.218 627,214.5C 628.171,212.158 629.338,209.824 630.5,207.5C 630.833,208.167 631.167,208.833 631.5,209.5C 632.853,225.097 636.186,240.264 641.5,255C 641.108,256.011 640.441,256.511 639.5,256.5C 640.309,258.071 640.643,259.738 640.5,261.5C 640.216,263.415 640.549,265.081 641.5,266.5C 641.399,270.385 641.565,274.385 642,278.5C 640.333,274.5 638.667,270.5 637,266.5C 636.833,267 636.667,267.5 636.5,268C 638.924,275.546 641.091,283.046 643,290.5C 642,288.5 641,286.5 640,284.5C 639.833,285 639.667,285.5 639.5,286C 643.471,294.775 647.304,303.608 651,312.5C 652.016,313.634 652.683,313.301 653,311.5C 653.39,314.104 654.224,316.438 655.5,318.5C 657.003,324.351 658.67,330.185 660.5,336C 661.369,337.869 662.535,338.369 664,337.5C 665.206,340.737 666.706,343.07 668.5,344.5C 669.5,345.5 670.5,346.5 671.5,347.5C 670.758,357.01 670.091,366.677 669.5,376.5C 669.963,393.512 670.629,405.846 671.5,413.5C 672.222,420.035 673.055,426.702 674,433.5C 674.333,428.5 674.667,423.5 675,418.5C 675.79,424.552 675.624,430.552 674.5,436.5C 674.833,436.833 675.167,437.167 675.5,437.5C 676.228,434.788 677.061,432.121 678,429.5C 678.282,433.002 678.449,436.335 678.5,439.5C 679.88,434.56 681.046,429.56 682,424.5C 682.074,430.89 681.74,437.223 681,443.5C 682.83,439.714 684.163,435.714 685,431.5C 685.333,435.167 685.667,438.833 686,442.5C 686.844,438.789 687.844,435.123 689,431.5C 689.128,434.514 689.128,437.514 689,440.5C 690.84,437.737 692.174,434.737 693,431.5C 693.333,434.167 693.667,436.833 694,439.5C 695.413,434.261 697.413,429.261 700,424.5C 703.5,421 707,417.5 710.5,414C 712.419,412.066 713.919,412.233 715,414.5C 718.737,411.886 721.903,408.719 724.5,405C 725.437,404.308 726.103,404.475 726.5,405.5C 726.062,405.435 725.728,405.601 725.5,406C 726.308,406.308 726.975,406.808 727.5,407.5C 725.851,409.65 724.018,411.65 722,413.5C 720.711,415.055 720.044,416.721 720,418.5C 725.898,411.821 732.731,406.487 740.5,402.5C 743.703,401.317 746.87,399.984 750,398.5C 751.762,398.944 751.595,399.444 749.5,400C 750.09,401.509 750.756,403.009 751.5,404.5C 755.185,403.759 755.851,402.259 753.5,400C 757.272,398.611 757.272,397.611 753.5,397C 759.766,394.338 766.099,394.004 772.5,396C 770.5,396.333 768.5,396.667 766.5,397C 768.193,399.952 770.026,400.118 772,397.5C 772.195,399.207 772.195,400.874 772,402.5C 775.221,399.272 776.721,399.938 776.5,404.5C 777.822,404.67 778.989,404.337 780,403.5C 780.667,404.833 780.667,406.167 780,407.5C 779.346,406.304 778.846,406.304 778.5,407.5C 779.861,409.028 781.028,410.695 782,412.5C 784.546,408.275 785.88,408.608 786,413.5C 786.667,412.167 787.333,412.167 788,413.5C 787.475,409.939 786.141,406.606 784,403.5C 783.667,403.833 783.333,404.167 783,404.5C 782.1,402.602 780.934,400.936 779.5,399.5C 777.936,400.186 776.269,400.019 774.5,399C 775.872,398.598 777.205,398.098 778.5,397.5C 786.368,402.231 790.368,409.231 790.5,418.5C 789.178,418.33 788.011,418.663 787,419.5C 786,418.167 785,416.833 784,415.5C 783.405,416.899 783.572,418.232 784.5,419.5C 783.738,419.911 782.738,420.077 781.5,420C 782.654,420.914 782.487,421.747 781,422.5C 779.833,421.333 778.667,420.167 777.5,419C 776.563,418.308 775.897,418.475 775.5,419.5C 772.069,417.612 768.402,417.112 764.5,418C 757.223,420.637 750.556,424.304 744.5,429C 738.333,435.167 732.167,441.333 726,447.5C 719.226,455.21 714.393,464.044 711.5,474C 712.499,480.818 712.999,487.651 713,494.5C 709.89,501.622 705.224,507.622 699,512.5C 695.826,517.06 694.826,522.06 696,527.5C 697.913,529.187 700.08,529.687 702.5,529C 707.982,526.423 712.982,523.09 717.5,519C 722.714,518.988 727.714,518.155 732.5,516.5C 732.735,517.097 733.235,517.43 734,517.5C 742.283,513.972 746.949,507.639 748,498.5C 748.813,492.41 748.646,487.076 747.5,482.5C 745.695,471.764 741.029,462.431 733.5,454.5C 738.198,446.136 744.865,439.803 753.5,435.5C 756.492,441.314 758.992,447.314 761,453.5C 761.172,450.174 761.005,446.841 760.5,443.5C 763.77,451.855 766.27,461.188 768,471.5C 768.499,477.157 768.666,482.824 768.5,488.5C 763.006,508.484 751.34,523.651 733.5,534C 734.833,534.667 736.167,534.667 737.5,534C 747.235,528.932 755.068,521.766 761,512.5C 770.123,494.957 776.957,476.624 781.5,457.5C 781.369,458.239 781.536,458.906 782,459.5C 783.845,451.598 784.678,451.598 784.5,459.5C 785.631,460.604 786.465,460.271 787,458.5C 787.582,461.668 788.582,462.001 790,459.5C 790.167,460.667 790.333,461.833 790.5,463C 789.065,470.902 787.399,478.736 785.5,486.5C 775.84,519.003 757.84,545.836 731.5,567C 724.493,572.003 716.826,575.67 708.5,578C 699.319,579.622 690.653,578.289 682.5,574C 679.567,571.736 677.4,568.902 676,565.5C 676.884,557.645 678.051,549.812 679.5,542C 679.167,541.833 678.833,541.667 678.5,541.5C 675.632,552.871 671.966,563.871 667.5,574.5C 659.86,590.835 652.193,607.835 644.5,625.5C 637.953,638.557 628.953,649.724 617.5,659C 579.869,686.328 539.536,709.328 496.5,728C 454.724,745.421 411.39,750.921 366.5,744.5C 357.66,741.275 348.993,737.441 340.5,733C 324.073,721.089 316.907,704.923 319,684.5C 319.435,671.777 325.268,662.61 336.5,657C 348.874,656.343 361.207,656.843 373.5,658.5C 383.096,658.695 391.43,655.695 398.5,649.5C 400.225,647.043 400.725,644.377 400,641.5C 397.522,639.361 395.022,637.361 392.5,635.5C 397.064,635.023 401.398,633.857 405.5,632C 388.593,633.521 371.593,633.855 354.5,633C 348.115,632.325 341.782,631.325 335.5,630C 332.975,629.576 330.975,628.41 329.5,626.5C 330.239,626.631 330.906,626.464 331.5,626C 327.34,623.508 325.34,619.841 325.5,615C 325.582,611.765 326.082,608.598 327,605.5C 328.883,604.347 329.716,602.681 329.5,600.5C 331.756,599.077 334.256,598.41 337,598.5C 345.277,600.022 353.61,601.022 362,601.5C 372.826,600.609 383.66,600.442 394.5,601C 411.106,604.121 427.606,607.621 444,611.5C 449.829,611.896 450.662,610.396 446.5,607C 435.677,605.955 425.011,604.121 414.5,601.5C 414.917,600.876 415.584,600.543 416.5,600.5C 420.141,601.628 423.808,602.628 427.5,603.5C 428.696,603.154 428.696,602.654 427.5,602C 412.392,592.031 395.892,585.531 378,582.5C 370.717,582.993 363.551,583.993 356.5,585.5C 349.899,584.855 343.566,583.189 337.5,580.5C 334.802,578.799 332.802,576.466 331.5,573.5C 332.693,567.753 334.193,562.087 336,556.5C 336.883,553.898 338.383,551.731 340.5,550C 347.02,547.294 353.687,544.961 360.5,543C 366.556,538.304 373.223,534.637 380.5,532C 389.254,530.407 397.921,529.241 406.5,528.5C 415.283,526.869 421.116,521.869 424,513.5C 424.839,502.35 421.839,492.35 415,483.5C 416.32,487.834 417.987,492.167 420,496.5C 420.939,499.764 421.439,503.097 421.5,506.5C 422.206,511.413 420.539,515.079 416.5,517.5C 406.309,510.476 394.976,505.642 382.5,503C 366.824,502.067 351.157,501.067 335.5,500C 324.851,498.369 317.184,492.869 312.5,483.5C 316.444,471.605 322.444,460.938 330.5,451.5C 340.843,435.882 349.51,419.215 356.5,401.5C 356.376,400.893 356.043,400.56 355.5,400.5C 358.771,392.729 362.271,385.062 366,377.5C 366.667,373.833 366.667,370.167 366,366.5C 364.855,363.568 364.022,360.568 363.5,357.5C 362.453,354.404 361.12,351.404 359.5,348.5C 360.833,347.5 362.167,346.5 363.5,345.5C 364.852,346.518 365.852,347.851 366.5,349.5C 366.833,349 367.167,348.5 367.5,348C 366.548,345.454 364.715,343.954 362,343.5C 361.174,335.527 360.674,335.527 360.5,343.5C 359.833,341.167 359.167,338.833 358.5,336.5C 357.833,334.833 357.167,333.167 356.5,331.5C 355.937,328.985 354.937,327.318 353.5,326.5C 352.778,326.082 352.278,325.416 352,324.5C 351.667,325.5 351.333,326.5 351,327.5C 350.193,323.551 349.693,323.551 349.5,327.5C 346.775,323.732 344.275,319.732 342,315.5C 340.961,314.29 339.794,313.29 338.5,312.5C 330.996,305.09 322.329,300.423 312.5,298.5C 299.641,292.761 286.308,291.261 272.5,294C 268.809,296.019 265.142,297.686 261.5,299C 266.397,290.706 270.897,282.206 275,273.5C 281.942,255.339 289.276,237.339 297,219.5C 304.042,206.468 311.875,193.968 320.5,182C 321.5,181.333 322.5,181.333 323.5,182C 322.549,182.718 322.383,183.551 323,184.5C 328.352,181.037 334.185,179.537 340.5,180C 348.953,181.53 357.286,183.53 365.5,186C 364.833,186.667 364.167,187.333 363.5,188C 366.959,189.706 370.459,189.872 374,188.5C 373.782,190.587 373.949,192.587 374.5,194.5C 376.608,193.898 378.775,193.565 381,193.5C 391.545,197.056 402.379,194.722 413.5,186.5C 414.696,186.846 414.696,187.346 413.5,188C 406.96,191.533 401.294,196.2 396.5,202C 408.478,199.565 419.811,195.565 430.5,190C 427.833,192 425.167,194 422.5,196C 423,196.167 423.5,196.333 424,196.5C 432.956,193.296 441.789,190.129 450.5,187C 448.959,189.916 447.293,192.749 445.5,195.5C 446,195.833 446.5,196.167 447,196.5C 455.062,193.56 463.229,191.394 471.5,190C 469.655,191.423 467.655,192.59 465.5,193.5C 465.667,193.833 465.833,194.167 466,194.5C 471.612,193.222 477.112,191.555 482.5,189.5 Z"/></g>
<g><path style="opacity:1" fill="#b16727" d="M 742.5,481.5 C 742.404,486.632 742.238,491.965 742,497.5C 741.547,504.583 738.047,509.417 731.5,512C 727.251,513.126 722.918,513.792 718.5,514C 717.584,514.278 716.918,514.778 716.5,515.5C 713.026,518.802 709.359,521.968 705.5,525C 703.314,526.309 701.147,526.476 699,525.5C 698.257,522.217 698.924,519.217 701,516.5C 706.667,512.167 711.667,507.167 716,501.5C 717.579,493.176 717.412,484.843 715.5,476.5C 719.101,460.203 726.601,458.203 738,470.5C 740.066,473.961 741.566,477.627 742.5,481.5 Z"/></g>
<g><path style="opacity:1" fill="#ea9d4c" d="M 732.5,516.5 C 738.754,514.747 742.921,510.747 745,504.5C 747.108,497.32 747.942,489.987 747.5,482.5C 748.646,487.076 748.813,492.41 748,498.5C 746.949,507.639 742.283,513.972 734,517.5C 733.235,517.43 732.735,517.097 732.5,516.5 Z"/></g>
<g><path style="opacity:1" fill="#db7e2f" d="M 742.5,481.5 C 748.208,504.143 739.542,515.476 716.5,515.5C 716.918,514.778 717.584,514.278 718.5,514C 722.918,513.792 727.251,513.126 731.5,512C 738.047,509.417 741.547,504.583 742,497.5C 742.238,491.965 742.404,486.632 742.5,481.5 Z"/></g>
<g><path style="opacity:1" fill="#0f0803" d="M 484.5,416.5 C 500.166,420.79 515.832,420.29 531.5,415C 536.01,413.582 540.01,411.415 543.5,408.5C 547.032,407.146 550.198,405.146 553,402.5C 548.05,409.622 541.217,414.789 532.5,418C 506.766,427.066 483.099,423.4 461.5,407C 460.304,406.346 460.304,405.846 461.5,405.5C 468.804,409.986 476.471,413.652 484.5,416.5 Z"/></g>
<g><path style="opacity:1" fill="#d6bc94" d="M 551.5,395.5 C 551.628,397.655 551.128,399.655 550,401.5C 547.628,403.703 545.461,406.037 543.5,408.5C 540.01,411.415 536.01,413.582 531.5,415C 515.832,420.29 500.166,420.79 484.5,416.5C 498.727,419.3 507.561,413.634 511,399.5C 512.012,393.65 511.512,387.984 509.5,382.5C 517.034,382.378 524.368,383.878 531.5,387C 538.155,389.938 544.822,392.771 551.5,395.5 Z"/></g>
<g><path style="opacity:1" fill="#e7d2a9" d="M 468.5,394.5 C 469,398.009 470,401.343 471.5,404.5C 466.466,404.11 464.633,401.444 466,396.5C 466.708,395.619 467.542,394.953 468.5,394.5 Z"/></g>
<g><path style="opacity:1" fill="#070900" d="M 551.5,395.5 C 544.822,392.771 538.155,389.938 531.5,387C 524.368,383.878 517.034,382.378 509.5,382.5C 511.512,387.984 512.012,393.65 511,399.5C 507.561,413.634 498.727,419.3 484.5,416.5C 478.914,413.916 474.58,409.916 471.5,404.5C 470,401.343 469,398.009 468.5,394.5C 468.543,391.413 468.71,388.413 469,385.5C 463.3,389.364 457.467,393.031 451.5,396.5C 451.167,396.167 450.833,395.833 450.5,395.5C 454.148,390.519 458.148,385.853 462.5,381.5C 463.167,381.5 463.5,381.167 463.5,380.5C 468.624,376.942 474.29,374.442 480.5,373C 503.627,370.865 525.294,375.532 545.5,387C 553.679,391.253 561.346,396.253 568.5,402C 562.577,400.744 556.91,398.577 551.5,395.5 Z"/></g>
<g><path style="opacity:1" fill="#100802" d="M 505.5,356.5 C 528.261,358.881 547.261,368.715 562.5,386C 562.167,386.167 561.833,386.333 561.5,386.5C 549.862,376.515 536.862,368.848 522.5,363.5C 508.538,359.779 494.538,359.613 480.5,363C 475.777,365.022 471.443,367.522 467.5,370.5C 463.961,372.264 460.627,374.097 457.5,376C 465.126,367.036 474.459,360.869 485.5,357.5C 492.137,356.724 498.804,356.391 505.5,356.5 Z"/></g>
<g><path style="opacity:1" fill="#d4792c" d="M 522.5,363.5 C 522.083,364.124 521.416,364.457 520.5,364.5C 508.917,361.518 497.25,361.018 485.5,363C 483.359,363.573 481.359,364.406 479.5,365.5C 475.5,367.167 471.5,368.833 467.5,370.5C 471.443,367.522 475.777,365.022 480.5,363C 494.538,359.613 508.538,359.779 522.5,363.5 Z"/></g>
<g><path style="opacity:1" fill="#f3a34e" d="M 488.5,355.5 C 496.234,355.125 501.901,355.458 505.5,356.5C 498.804,356.391 492.137,356.724 485.5,357.5C 485.973,356.094 486.973,355.427 488.5,355.5 Z"/></g>
<g><path style="opacity:1" fill="#9e5315" d="M 512.5,336.5 C 513.5,336.5 514.5,336.5 515.5,336.5C 508.074,340.74 500.741,345.24 493.5,350C 491.576,351.75 489.909,353.583 488.5,355.5C 486.973,355.427 485.973,356.094 485.5,357.5C 474.459,360.869 465.126,367.036 457.5,376C 460.627,374.097 463.961,372.264 467.5,370.5C 471.5,368.833 475.5,367.167 479.5,365.5C 473.491,369.845 468.157,374.845 463.5,380.5C 463.5,381.167 463.167,381.5 462.5,381.5C 456.401,384.049 450.401,386.882 444.5,390C 441.5,390.667 438.5,390.667 435.5,390C 433.33,388.414 430.996,387.08 428.5,386C 421.787,375.244 416.453,363.91 412.5,352C 412.978,350.358 413.978,349.191 415.5,348.5C 415.783,349.289 416.283,349.956 417,350.5C 418.755,349.33 419.755,347.663 420,345.5C 421.028,347.516 422.695,348.516 425,348.5C 443.915,345.917 462.748,342.917 481.5,339.5C 491.813,339.924 502.147,338.924 512.5,336.5 Z"/></g>
<g><path style="opacity:1" fill="#120a02" d="M 413.5,340.5 C 411.569,338.206 410.736,335.539 411,332.5C 412.341,335.022 413.174,337.689 413.5,340.5 Z"/></g>
<g><path style="opacity:1" fill="#060900" d="M 539.5,298.5 C 553.615,300.976 566.282,307.142 577.5,317C 591.594,330.585 603.594,345.752 613.5,362.5C 606.955,359.271 600.288,355.438 593.5,351C 578.691,342.093 562.691,336.926 545.5,335.5C 534.5,334.167 523.5,334.167 512.5,335.5C 502.113,336.46 491.78,337.793 481.5,339.5C 462.748,342.917 443.915,345.917 425,348.5C 422.695,348.516 421.028,347.516 420,345.5C 419.755,347.663 418.755,349.33 417,350.5C 416.283,349.956 415.783,349.289 415.5,348.5C 414.833,345.833 414.167,343.167 413.5,340.5C 414.892,342.273 416.059,344.273 417,346.5C 417.167,346 417.333,345.5 417.5,345C 412.621,337.295 411.454,329.128 414,320.5C 414.333,324.5 414.667,328.5 415,332.5C 415.333,328.833 415.667,325.167 416,321.5C 416.149,327.325 417.149,332.992 419,338.5C 418.616,332.86 418.616,327.194 419,321.5C 419.29,319.956 419.956,318.623 421,317.5C 419.987,324.694 420.821,325.027 423.5,318.5C 429.439,313.012 436.439,309.512 444.5,308C 463.785,303.678 483.118,300.511 502.5,298.5C 518.378,297.877 534.045,299.044 549.5,302C 546.101,300.923 542.767,299.756 539.5,298.5 Z"/></g>
<g><path style="opacity:1" fill="#bf631b" d="M 512.5,335.5 C 512.5,335.833 512.5,336.167 512.5,336.5C 502.147,338.924 491.813,339.924 481.5,339.5C 491.78,337.793 502.113,336.46 512.5,335.5 Z"/></g>
<g><path style="opacity:1" fill="#d88c40" d="M 545.5,335.5 C 535.681,336.494 525.681,336.827 515.5,336.5C 514.5,336.5 513.5,336.5 512.5,336.5C 512.5,336.167 512.5,335.833 512.5,335.5C 523.5,334.167 534.5,334.167 545.5,335.5 Z"/></g>
<g><path style="opacity:1" fill="#e59a4a" d="M 539.5,298.5 C 542.767,299.756 546.101,300.923 549.5,302C 534.045,299.044 518.378,297.877 502.5,298.5C 514.109,297.266 526.442,297.266 539.5,298.5 Z"/></g>
<g><path style="opacity:1" fill="#d09146" d="M 482.5,189.5 C 483.002,187.915 484.002,187.415 485.5,188C 484.756,189.039 483.756,189.539 482.5,189.5 Z"/></g>
<g><path style="opacity:1" fill="#e49a4a" d="M 667.5,574.5 C 663.162,586.676 658.329,598.676 653,610.5C 650.646,615.887 647.812,620.887 644.5,625.5C 652.193,607.835 659.86,590.835 667.5,574.5 Z"/></g>
<g><path style="opacity:1" fill="#100701" d="M 337.5,580.5 C 343.566,583.189 349.899,584.855 356.5,585.5C 359.977,586.323 363.644,586.823 367.5,587C 363.167,587.667 358.833,587.667 354.5,587C 348.412,585.785 342.412,584.285 336.5,582.5C 331.921,584.044 328.088,586.711 325,590.5C 325.195,588.255 326.362,586.422 328.5,585C 331.286,582.94 334.286,581.44 337.5,580.5 Z"/></g>
<g><path style="opacity:1" fill="#0d0801" d="M 414.5,601.5 C 425.011,604.121 435.677,605.955 446.5,607C 450.662,610.396 449.829,611.896 444,611.5C 427.606,607.621 411.106,604.121 394.5,601C 383.66,600.442 372.826,600.609 362,601.5C 353.61,601.022 345.277,600.022 337,598.5C 334.256,598.41 331.756,599.077 329.5,600.5C 322.32,602.535 314.986,603.535 307.5,603.5C 307.286,601.856 307.62,600.356 308.5,599C 311.147,598.821 313.814,598.988 316.5,599.5C 323.653,598.059 330.82,596.726 338,595.5C 345.511,596.446 353.011,597.446 360.5,598.5C 378.709,596.439 396.709,597.439 414.5,601.5 Z"/></g>
<g><path style="opacity:1" fill="#9e5316" d="M 330.5,442.5 C 326.244,450.687 321.244,458.354 315.5,465.5C 310.367,472.213 307.367,479.88 306.5,488.5C 306.421,497.556 309.087,505.556 314.5,512.5C 320.74,518.954 328.074,522.621 336.5,523.5C 336.833,523.5 337.167,523.5 337.5,523.5C 340.8,525.108 344.133,526.775 347.5,528.5C 348.521,527.998 348.688,527.332 348,526.5C 340.905,518.9 333.405,511.9 325.5,505.5C 323.225,502.611 320.392,501.944 317,503.5C 314.542,499.907 313.208,495.907 313,491.5C 312.517,492.448 312.351,493.448 312.5,494.5C 311.213,490.935 311.213,487.268 312.5,483.5C 317.184,492.869 324.851,498.369 335.5,500C 351.157,501.067 366.824,502.067 382.5,503C 394.976,505.642 406.309,510.476 416.5,517.5C 411.568,521.977 405.901,525.477 399.5,528C 401.81,528.497 404.143,528.663 406.5,528.5C 397.921,529.241 389.254,530.407 380.5,532C 373.223,534.637 366.556,538.304 360.5,543C 353.687,544.961 347.02,547.294 340.5,550C 338.383,551.731 336.883,553.898 336,556.5C 334.193,562.087 332.693,567.753 331.5,573.5C 332.802,576.466 334.802,578.799 337.5,580.5C 334.286,581.44 331.286,582.94 328.5,585C 326.362,586.422 325.195,588.255 325,590.5C 328.088,586.711 331.921,584.044 336.5,582.5C 342.412,584.285 348.412,585.785 354.5,587C 358.833,587.667 363.167,587.667 367.5,587C 363.644,586.823 359.977,586.323 356.5,585.5C 363.551,583.993 370.717,582.993 378,582.5C 395.892,585.531 412.392,592.031 427.5,602C 428.696,602.654 428.696,603.154 427.5,603.5C 423.808,602.628 420.141,601.628 416.5,600.5C 415.584,600.543 414.917,600.876 414.5,601.5C 396.709,597.439 378.709,596.439 360.5,598.5C 353.011,597.446 345.511,596.446 338,595.5C 330.82,596.726 323.653,598.059 316.5,599.5C 313.814,598.988 311.147,598.821 308.5,599C 307.62,600.356 307.286,601.856 307.5,603.5C 314.986,603.535 322.32,602.535 329.5,600.5C 329.716,602.681 328.883,604.347 327,605.5C 326.082,608.598 325.582,611.765 325.5,615C 325.34,619.841 327.34,623.508 331.5,626C 330.906,626.464 330.239,626.631 329.5,626.5C 328.761,626.369 328.094,626.536 327.5,627C 330.402,629.417 333.402,631.584 336.5,633.5C 342.134,635.909 348.134,637.409 354.5,638C 366.221,638.869 373.888,638.702 377.5,637.5C 382.346,636.673 387.346,636.006 392.5,635.5C 395.022,637.361 397.522,639.361 400,641.5C 400.725,644.377 400.225,647.043 398.5,649.5C 391.43,655.695 383.096,658.695 373.5,658.5C 361.207,656.843 348.874,656.343 336.5,657C 325.268,662.61 319.435,671.777 319,684.5C 316.907,704.923 324.073,721.089 340.5,733C 348.993,737.441 357.66,741.275 366.5,744.5C 336.03,742.524 312.53,728.858 296,703.5C 287.754,690.34 280.588,676.673 274.5,662.5C 270.204,648.986 266.371,635.319 263,621.5C 257.109,586.645 252.275,551.645 248.5,516.5C 249.321,513.359 249.821,510.025 250,506.5C 250.333,508.5 250.667,510.5 251,512.5C 251.333,511.833 251.667,511.167 252,510.5C 252.249,511.624 252.749,512.624 253.5,513.5C 254.443,511.53 253.776,510.03 251.5,509C 251.927,506.872 251.427,504.705 250,502.5C 249.667,502.833 249.333,503.167 249,503.5C 248.301,497.825 247.968,492.158 248,486.5C 248.667,489.167 249.333,491.833 250,494.5C 251,493.167 252,493.167 253,494.5C 253.667,493.833 253.667,493.167 253,492.5C 252.08,492.07 251.247,491.736 250.5,491.5C 251.651,490.269 252.817,490.269 254,491.5C 254.667,490.5 254.667,489.5 254,488.5C 253.667,488.833 253.333,489.167 253,489.5C 252.342,487.892 252.842,486.725 254.5,486C 253.5,485.667 252.5,485.333 251.5,485C 252.572,483.716 253.905,483.383 255.5,484C 255.167,483 254.833,482 254.5,481C 255.5,480 256.5,479 257.5,478C 256.167,477.333 255.167,476.333 254.5,475C 255.386,473.783 256.386,472.449 257.5,471C 257,470.833 256.5,470.667 256,470.5C 251.454,472.93 250.621,476.097 253.5,480C 252.975,480.692 252.308,481.192 251.5,481.5C 250.017,479.054 248.851,479.388 248,482.5C 247.667,482.167 247.333,481.833 247,481.5C 246.333,472.833 246.333,464.167 247,455.5C 247.333,456.167 247.667,456.833 248,457.5C 248.29,455.956 248.956,454.623 250,453.5C 251.114,457.456 251.947,457.456 252.5,453.5C 254.451,453.227 255.951,453.893 257,455.5C 257.667,454.833 258.333,454.167 259,453.5C 259.687,450.029 258.687,449.695 256,452.5C 255.729,450.193 256.895,449.026 259.5,449C 258.289,448.107 258.289,447.274 259.5,446.5C 260.941,447.304 262.441,447.971 264,448.5C 264.945,448.095 265.612,447.428 266,446.5C 266.464,447.094 266.631,447.761 266.5,448.5C 265.984,455.985 265.651,463.485 265.5,471C 264.278,486.081 267.112,500.247 274,513.5C 275.113,515.8 276.613,516.133 278.5,514.5C 280.449,513.293 281.949,511.627 283,509.5C 298.205,480.421 313.371,451.421 328.5,422.5C 330.411,422.574 331.578,423.574 332,425.5C 333.924,423.178 335.257,420.511 336,417.5C 335.954,419.313 336.12,420.979 336.5,422.5C 334.844,424.412 334.511,426.412 335.5,428.5C 336.248,426.668 337.248,425.001 338.5,423.5C 337.989,420.157 338.489,416.824 340,413.5C 340.915,414.328 341.581,415.328 342,416.5C 342.419,415.328 343.085,414.328 344,413.5C 342.009,420.479 338.676,426.812 334,432.5C 332.506,431.253 331.006,431.253 329.5,432.5C 330.718,433.803 330.385,434.803 328.5,435.5C 329.5,436.833 330.5,438.167 331.5,439.5C 330.873,440.417 330.539,441.417 330.5,442.5 Z"/></g>
<g><path style="opacity:1" fill="#0b0801" d="M 325.5,505.5 C 333.405,511.9 340.905,518.9 348,526.5C 348.688,527.332 348.521,527.998 347.5,528.5C 344.133,526.775 340.8,525.108 337.5,523.5C 331.231,518.405 325.064,513.072 319,507.5C 318.51,506.207 318.343,504.873 318.5,503.5C 320.921,503.878 323.254,504.545 325.5,505.5 Z"/></g>
<g><path style="opacity:1" fill="#d47621" d="M 325.5,505.5 C 323.254,504.545 320.921,503.878 318.5,503.5C 318.343,504.873 318.51,506.207 319,507.5C 325.064,513.072 331.231,518.405 337.5,523.5C 337.167,523.5 336.833,523.5 336.5,523.5C 329.918,519.092 323.751,514.092 318,508.5C 315.083,504.249 313.25,499.582 312.5,494.5C 312.351,493.448 312.517,492.448 313,491.5C 313.208,495.907 314.542,499.907 317,503.5C 320.392,501.944 323.225,502.611 325.5,505.5 Z"/></g>
<g><path style="opacity:1" fill="#0b0801" d="M 366.5,509.5 C 376.438,509.267 386.105,510.767 395.5,514C 397.329,515.113 398.163,516.613 398,518.5C 397.586,518.957 397.086,519.291 396.5,519.5C 384.425,515.495 372.091,514.495 359.5,516.5C 359.351,515.448 359.517,514.448 360,513.5C 362.013,511.752 364.18,510.418 366.5,509.5 Z"/></g>
<g><path style="opacity:1" fill="#0e0701" d="M 329.5,626.5 C 330.975,628.41 332.975,629.576 335.5,630C 341.782,631.325 348.115,632.325 354.5,633C 371.593,633.855 388.593,633.521 405.5,632C 401.398,633.857 397.064,635.023 392.5,635.5C 387.346,636.006 382.346,636.673 377.5,637.5C 363.669,637.729 350.003,636.396 336.5,633.5C 333.402,631.584 330.402,629.417 327.5,627C 328.094,626.536 328.761,626.369 329.5,626.5 Z"/></g>
<g><path style="opacity:1" fill="#d06b1d" d="M 336.5,633.5 C 350.003,636.396 363.669,637.729 377.5,637.5C 373.888,638.702 366.221,638.869 354.5,638C 348.134,637.409 342.134,635.909 336.5,633.5 Z"/></g>
<g><path style="opacity:0.028" fill="#010300" d="M 681.5,749.5 C 689.16,750.993 696.16,754.16 702.5,759C 706.493,759.322 709.826,760.988 712.5,764C 721.024,767.032 729.69,769.698 738.5,772C 762.528,782.925 786.195,794.591 809.5,807C 813.831,807.595 817.998,808.761 822,810.5C 832.077,814.511 841.91,819.011 851.5,824C 861.557,827.02 871.224,831.02 880.5,836C 901.532,843.026 922.199,851.026 942.5,860C 948.449,861.823 954.449,863.657 960.5,865.5C 964.876,867.058 968.876,869.225 972.5,872C 982.787,874.647 992.454,878.647 1001.5,884C 1003.9,884.186 1006.23,884.686 1008.5,885.5C 1013.12,889.703 1018.12,893.37 1023.5,896.5C 1023.5,898.833 1023.5,901.167 1023.5,903.5C 1010.91,896.12 997.908,889.286 984.5,883C 924.173,859.338 864.173,834.838 804.5,809.5C 804.67,808.178 804.337,807.011 803.5,806C 791.658,801.28 780.325,795.613 769.5,789C 757.833,785.315 747.166,780.482 737.5,774.5C 733.55,773.037 729.717,771.371 726,769.5C 725.667,769.833 725.333,770.167 725,770.5C 720.938,768.296 716.771,767.296 712.5,767.5C 710.5,766.833 708.5,766.167 706.5,765.5C 706.918,764.778 707.584,764.278 708.5,764C 708.167,763.667 707.833,763.333 707.5,763C 698.637,758.569 689.97,754.069 681.5,749.5 Z"/></g>
<g><path style="opacity:0.017" fill="#000000" d="M 242.5,778.5 C 235.742,783.063 228.409,786.563 220.5,789C 207.64,798.258 194.64,807.258 181.5,816C 168.798,822.673 156.131,829.339 143.5,836C 119.081,845.806 94.7478,855.806 70.5,866C 58.6253,871.289 46.9586,876.955 35.5,883C 34.9647,885.109 33.9647,885.609 32.5,884.5C 21.6575,890.051 10.6575,895.051 -0.5,899.5C -0.5,898.833 -0.5,898.167 -0.5,897.5C 17.3685,888.816 35.3685,880.316 53.5,872C 54.9842,870.426 56.6508,869.093 58.5,868C 64.4081,865.751 70.4081,863.751 76.5,862C 87.7643,856.488 99.0976,851.155 110.5,846C 117.034,845.027 123.034,842.694 128.5,839C 131.5,838 134.5,837 137.5,836C 151.9,828.847 166.234,821.514 180.5,814C 194.776,803.521 209.442,793.521 224.5,784C 228.705,782.9 232.705,781.233 236.5,779C 238.473,778.505 240.473,778.338 242.5,778.5 Z"/></g>
<g><path style="opacity:1" fill="#111308" d="M 262.5,930.5 C 240.25,941.121 217.583,950.954 194.5,960C 176.427,964.544 158.093,965.711 139.5,963.5C 151.023,929.416 162.856,895.416 175,861.5C 180.469,848.251 187.303,835.918 195.5,824.5C 195.167,824.167 194.833,823.833 194.5,823.5C 193.016,825.074 191.349,826.407 189.5,827.5C 181.108,839.615 174.274,852.615 169,866.5C 154.88,905.525 141.547,944.858 129,984.5C 123.706,1005.32 118.04,1025.98 112,1046.5C 107.12,1067.69 101.787,1088.69 96,1109.5C 95.2204,1111.39 95.3871,1113.05 96.5,1114.5C 94.4421,1122.51 92.2755,1130.51 90,1138.5C 89.3333,1132.5 89.3333,1126.5 90,1120.5C 95.9133,1082.69 102.58,1045.02 110,1007.5C 117.425,977.133 126.091,947.133 136,917.5C 136.667,915.833 136.667,914.167 136,912.5C 89.8011,903.655 44.3011,906.322 -0.5,920.5C -0.5,914.833 -0.5,909.167 -0.5,903.5C 49.4263,879.364 100.093,857.197 151.5,837C 161.731,831.776 171.731,826.109 181.5,820C 195.476,809.542 210.643,800.042 227,791.5C 227.5,791.833 228,792.167 228.5,792.5C 223.265,804.543 220.932,817.209 221.5,830.5C 224.249,868.437 237.916,901.771 262.5,930.5 Z"/></g>
<g><path style="opacity:1" fill="#1e1e17" d="M 804.5,809.5 C 864.173,834.838 924.173,859.338 984.5,883C 997.908,889.286 1010.91,896.12 1023.5,903.5C 1023.5,915.167 1023.5,926.833 1023.5,938.5C 1011.4,968.297 1000.57,998.63 991,1029.5C 976.066,1082.24 962.233,1135.24 949.5,1188.5C 948.167,1188.5 946.833,1188.5 945.5,1188.5C 948.224,1151.17 948.058,1113.83 945,1076.5C 942.419,1047.77 939.419,1019.11 936,990.5C 935.361,987.888 934.194,985.554 932.5,983.5C 931.268,984.145 929.935,984.311 928.5,984C 929.423,986.041 929.756,988.208 929.5,990.5C 921.67,1056.3 916.336,1122.3 913.5,1188.5C 907.5,1188.5 901.5,1188.5 895.5,1188.5C 895.391,1156.08 893.558,1123.74 890,1091.5C 883.463,1041.2 875.13,991.204 865,941.5C 861.298,925.994 856.965,910.66 852,895.5C 849.721,888.276 846.388,881.609 842,875.5C 842.34,898.964 842.506,922.297 842.5,945.5C 839.326,945.048 838.993,944.048 841.5,942.5C 840.965,940.729 840.131,940.396 839,941.5C 837.992,939.741 836.492,938.574 834.5,938C 834.833,937.667 835.167,937.333 835.5,937C 833.781,935.13 832.781,932.963 832.5,930.5C 839.907,931.841 840.407,930.174 834,925.5C 832.956,926.623 832.29,927.956 832,929.5C 831.167,928 830,926.833 828.5,926C 829.793,925.51 831.127,925.343 832.5,925.5C 832.741,922.001 831.908,921.668 830,924.5C 829.833,924.167 829.667,923.833 829.5,923.5C 830.779,921.854 832.445,920.687 834.5,920C 832.576,919.821 830.909,919.654 829.5,919.5C 831.555,918.813 833.221,917.646 834.5,916C 833.258,915.689 832.258,916.189 831.5,917.5C 830.304,917.154 830.304,916.654 831.5,916C 830.167,915.333 828.833,915.333 827.5,916C 828.863,918.129 828.529,918.629 826.5,917.5C 825.808,918.025 825.308,918.692 825,919.5C 822.907,917.936 820.907,915.602 819,912.5C 818.535,913.931 817.701,915.097 816.5,916C 819.799,917.033 821.299,919.2 821,922.5C 819.956,921.377 819.29,920.044 819,918.5C 818.026,920.878 817.359,920.544 817,917.5C 815.823,919.176 814.323,920.509 812.5,921.5C 813.485,923.098 813.651,924.765 813,926.5C 812.779,923.057 811.779,922.724 810,925.5C 809.333,924.167 808.667,922.833 808,921.5C 806.173,922.184 804.673,921.517 803.5,919.5C 804.376,918.749 805.376,918.249 806.5,918C 805.304,917.346 805.304,916.846 806.5,916.5C 807.167,916.833 807.833,917.167 808.5,917.5C 811.174,914.432 810.508,912.099 806.5,910.5C 806.977,909.522 807.643,908.689 808.5,908C 806.331,907.571 804.331,908.071 802.5,909.5C 800.343,908.152 799.01,906.152 798.5,903.5C 797.332,907.331 797.998,910.831 800.5,914C 799.483,915.049 799.316,916.216 800,917.5C 800.893,916.289 801.726,916.289 802.5,917.5C 801.91,918.799 800.91,919.632 799.5,920C 799.683,926.487 800.35,933.321 801.5,940.5C 801.145,941.522 800.478,942.189 799.5,942.5C 797.439,901.252 787.105,862.252 768.5,825.5C 768.167,825.167 767.833,824.833 767.5,824.5C 764.536,850.589 765.202,876.589 769.5,902.5C 769.291,903.086 768.957,903.586 768.5,904C 770.678,920.564 773.512,937.064 777,953.5C 781.527,970.277 786.36,986.943 791.5,1003.5C 788.087,1001.73 785.254,1002.39 783,1005.5C 780.183,1005.08 777.35,1004.74 774.5,1004.5C 773.506,1008.48 772.506,1008.48 771.5,1004.5C 772.263,1003.28 773.263,1002.28 774.5,1001.5C 773.726,1000.29 772.893,1000.29 772,1001.5C 771.544,1000.26 772.044,999.423 773.5,999C 772.624,997.414 771.624,995.914 770.5,994.5C 770.002,995.603 769.669,996.603 769.5,997.5C 767.644,994.81 765.311,992.644 762.5,991C 763.167,990.667 763.833,990.333 764.5,990C 764.167,989 763.833,988 763.5,987C 767.5,986.333 767.5,985.667 763.5,985C 764.167,984.667 764.833,984.333 765.5,984C 763.865,983.46 762.532,983.96 761.5,985.5C 759.755,985.524 757.921,985.19 756,984.5C 754.715,984.95 753.548,985.617 752.5,986.5C 751.959,983.266 750.626,980.433 748.5,978C 750.824,976.626 753.157,976.293 755.5,977C 756.739,972.335 757.572,972.502 758,977.5C 758.471,975.754 759.138,974.087 760,972.5C 760.333,972.833 760.667,973.167 761,973.5C 762.953,970.743 762.787,968.243 760.5,966C 761.696,965.346 761.696,964.846 760.5,964.5C 759.833,965.5 759.167,966.5 758.5,967.5C 758.084,964.66 756.084,962.826 752.5,962C 754.531,961.368 756.198,960.201 757.5,958.5C 756.975,957.808 756.308,957.308 755.5,957C 758.965,956.066 759.298,954.566 756.5,952.5C 755.749,953.376 755.249,954.376 755,955.5C 753.582,952.999 752.582,953.332 752,956.5C 751.026,954.122 750.359,954.456 750,957.5C 749.667,956.833 749.333,956.167 749,955.5C 747.05,955.751 744.884,956.418 742.5,957.5C 741.808,956.975 741.308,956.308 741,955.5C 740,956.833 739,956.833 738,955.5C 738.379,953.925 738.212,952.425 737.5,951C 736.551,950.383 735.718,950.549 735,951.5C 734.691,950.234 734.191,949.067 733.5,948C 735.333,946.833 736.833,945.333 738,943.5C 740.382,944.866 742.548,944.533 744.5,942.5C 742.993,941.261 741.826,941.595 741,943.5C 739.881,942.448 739.381,941.281 739.5,940C 741.167,939 742.5,937.667 743.5,936C 741.314,935.396 741.148,934.23 743,932.5C 743.333,932.833 743.667,933.167 744,933.5C 744.044,931.356 745.211,929.523 747.5,928C 747,927.5 746.5,927 746,926.5C 743.239,928.017 741.406,927.184 740.5,924C 741.299,922.251 740.632,920.918 738.5,920C 741.888,918.678 742.221,916.845 739.5,914.5C 741.012,913.138 742.512,912.804 744,913.5C 744.667,910.833 745.333,910.833 746,913.5C 747.744,912.97 749.244,912.97 750.5,913.5C 748.789,910.19 746.456,907.523 743.5,905.5C 743.846,904.304 744.346,904.304 745,905.5C 745.483,904.552 745.649,903.552 745.5,902.5C 742.306,902.176 741.306,903.342 742.5,906C 741.245,908.46 739.245,909.627 736.5,909.5C 736.649,908.448 736.483,907.448 736,906.5C 734.989,907.337 733.822,907.67 732.5,907.5C 732.657,906.127 732.49,904.793 732,903.5C 731.667,903.833 731.333,904.167 731,904.5C 729.148,902.77 729.314,901.604 731.5,901C 729.9,899.392 728.567,897.559 727.5,895.5C 725.866,895.968 724.7,896.968 724,898.5C 721.7,894.701 718.866,891.368 715.5,888.5C 713.345,888.14 711.345,888.14 709.5,888.5C 720.717,870.06 729.217,850.394 735,829.5C 739.001,812.378 739.501,795.378 736.5,778.5C 758.954,789.396 781.621,799.729 804.5,809.5 Z"/></g>
<g><path style="opacity:1" fill="#1d1d16" d="M 791.5,1003.5 C 793.939,1008.38 796.439,1013.38 799,1018.5C 800.763,993.19 800.929,967.856 799.5,942.5C 800.478,942.189 801.145,941.522 801.5,940.5C 800.35,933.321 799.683,926.487 799.5,920C 800.91,919.632 801.91,918.799 802.5,917.5C 801.726,916.289 800.893,916.289 800,917.5C 799.316,916.216 799.483,915.049 800.5,914C 797.998,910.831 797.332,907.331 798.5,903.5C 799.01,906.152 800.343,908.152 802.5,909.5C 804.331,908.071 806.331,907.571 808.5,908C 807.643,908.689 806.977,909.522 806.5,910.5C 810.508,912.099 811.174,914.432 808.5,917.5C 807.833,917.167 807.167,916.833 806.5,916.5C 805.304,916.846 805.304,917.346 806.5,918C 805.376,918.249 804.376,918.749 803.5,919.5C 804.673,921.517 806.173,922.184 808,921.5C 808.667,922.833 809.333,924.167 810,925.5C 811.779,922.724 812.779,923.057 813,926.5C 813.651,924.765 813.485,923.098 812.5,921.5C 814.323,920.509 815.823,919.176 817,917.5C 817.359,920.544 818.026,920.878 819,918.5C 819.29,920.044 819.956,921.377 821,922.5C 821.299,919.2 819.799,917.033 816.5,916C 817.701,915.097 818.535,913.931 819,912.5C 820.907,915.602 822.907,917.936 825,919.5C 825.308,918.692 825.808,918.025 826.5,917.5C 828.529,918.629 828.863,918.129 827.5,916C 828.833,915.333 830.167,915.333 831.5,916C 830.304,916.654 830.304,917.154 831.5,917.5C 832.258,916.189 833.258,915.689 834.5,916C 833.221,917.646 831.555,918.813 829.5,919.5C 830.909,919.654 832.576,919.821 834.5,920C 832.445,920.687 830.779,921.854 829.5,923.5C 829.667,923.833 829.833,924.167 830,924.5C 831.908,921.668 832.741,922.001 832.5,925.5C 831.127,925.343 829.793,925.51 828.5,926C 830,926.833 831.167,928 832,929.5C 832.29,927.956 832.956,926.623 834,925.5C 840.407,930.174 839.907,931.841 832.5,930.5C 832.781,932.963 833.781,935.13 835.5,937C 835.167,937.333 834.833,937.667 834.5,938C 836.492,938.574 837.992,939.741 839,941.5C 840.131,940.396 840.965,940.729 841.5,942.5C 838.993,944.048 839.326,945.048 842.5,945.5C 843.573,981.366 846.74,1017.03 852,1052.5C 861.026,1086.9 870.36,1121.23 880,1155.5C 882.599,1166.43 884.766,1177.43 886.5,1188.5C 765.5,1188.5 644.5,1188.5 523.5,1188.5C 548.852,1139.98 574.685,1091.64 601,1043.5C 621.907,1009.59 643.241,975.92 665,942.5C 665.853,940.875 666.853,940.542 668,941.5C 668.725,939.843 668.225,938.843 666.5,938.5C 682.716,923.365 697.05,906.698 709.5,888.5C 711.345,888.14 713.345,888.14 715.5,888.5C 718.866,891.368 721.7,894.701 724,898.5C 724.7,896.968 725.866,895.968 727.5,895.5C 728.567,897.559 729.9,899.392 731.5,901C 729.314,901.604 729.148,902.77 731,904.5C 731.333,904.167 731.667,903.833 732,903.5C 732.49,904.793 732.657,906.127 732.5,907.5C 733.822,907.67 734.989,907.337 736,906.5C 736.483,907.448 736.649,908.448 736.5,909.5C 739.245,909.627 741.245,908.46 742.5,906C 741.306,903.342 742.306,902.176 745.5,902.5C 745.649,903.552 745.483,904.552 745,905.5C 744.346,904.304 743.846,904.304 743.5,905.5C 746.456,907.523 748.789,910.19 750.5,913.5C 749.244,912.97 747.744,912.97 746,913.5C 745.333,910.833 744.667,910.833 744,913.5C 742.512,912.804 741.012,913.138 739.5,914.5C 742.221,916.845 741.888,918.678 738.5,920C 740.632,920.918 741.299,922.251 740.5,924C 741.406,927.184 743.239,928.017 746,926.5C 746.5,927 747,927.5 747.5,928C 745.211,929.523 744.044,931.356 744,933.5C 743.667,933.167 743.333,932.833 743,932.5C 741.148,934.23 741.314,935.396 743.5,936C 742.5,937.667 741.167,939 739.5,940C 739.381,941.281 739.881,942.448 741,943.5C 741.826,941.595 742.993,941.261 744.5,942.5C 742.548,944.533 740.382,944.866 738,943.5C 736.833,945.333 735.333,946.833 733.5,948C 734.191,949.067 734.691,950.234 735,951.5C 735.718,950.549 736.551,950.383 737.5,951C 738.212,952.425 738.379,953.925 738,955.5C 739,956.833 740,956.833 741,955.5C 741.308,956.308 741.808,956.975 742.5,957.5C 744.884,956.418 747.05,955.751 749,955.5C 749.333,956.167 749.667,956.833 750,957.5C 750.359,954.456 751.026,954.122 752,956.5C 752.582,953.332 753.582,952.999 755,955.5C 755.249,954.376 755.749,953.376 756.5,952.5C 759.298,954.566 758.965,956.066 755.5,957C 756.308,957.308 756.975,957.808 757.5,958.5C 756.198,960.201 754.531,961.368 752.5,962C 756.084,962.826 758.084,964.66 758.5,967.5C 759.167,966.5 759.833,965.5 760.5,964.5C 761.696,964.846 761.696,965.346 760.5,966C 762.787,968.243 762.953,970.743 761,973.5C 760.667,973.167 760.333,972.833 760,972.5C 759.138,974.087 758.471,975.754 758,977.5C 757.572,972.502 756.739,972.335 755.5,977C 753.157,976.293 750.824,976.626 748.5,978C 750.626,980.433 751.959,983.266 752.5,986.5C 753.548,985.617 754.715,984.95 756,984.5C 757.921,985.19 759.755,985.524 761.5,985.5C 762.532,983.96 763.865,983.46 765.5,984C 764.833,984.333 764.167,984.667 763.5,985C 767.5,985.667 767.5,986.333 763.5,987C 763.833,988 764.167,989 764.5,990C 763.833,990.333 763.167,990.667 762.5,991C 765.311,992.644 767.644,994.81 769.5,997.5C 769.669,996.603 770.002,995.603 770.5,994.5C 771.624,995.914 772.624,997.414 773.5,999C 772.044,999.423 771.544,1000.26 772,1001.5C 772.893,1000.29 773.726,1000.29 774.5,1001.5C 773.263,1002.28 772.263,1003.28 771.5,1004.5C 772.506,1008.48 773.506,1008.48 774.5,1004.5C 777.35,1004.74 780.183,1005.08 783,1005.5C 785.254,1002.39 788.087,1001.73 791.5,1003.5 Z"/></g>
<g><path style="opacity:1" fill="#0a0901" d="M 791.5,404.5 C 795.155,414.37 797.155,424.703 797.5,435.5C 797.004,447.721 795.671,460.054 793.5,472.5C 784.806,522.01 758.973,559.677 716,585.5C 713.322,586.836 710.489,587.67 707.5,588C 700.795,588.495 694.128,588.495 687.5,588C 684.926,589.914 683.093,592.414 682,595.5C 674.44,639.752 668.94,684.252 665.5,729C 665.667,733.833 665.833,738.667 666,743.5C 670.6,745.459 675.433,746.959 680.5,748C 681.056,748.383 681.389,748.883 681.5,749.5C 689.97,754.069 698.637,758.569 707.5,763C 707.833,763.333 708.167,763.667 708.5,764C 707.584,764.278 706.918,764.778 706.5,765.5C 696.193,761.015 685.859,756.515 675.5,752C 674.5,751.333 673.5,751.333 672.5,752C 681.397,755.565 689.23,760.731 696,767.5C 698.942,772.195 700.109,777.361 699.5,783C 699.267,794.034 696.767,804.534 692,814.5C 679.263,841.798 661.763,865.631 639.5,886C 610.251,912.139 577.251,932.472 540.5,947C 464.759,971.367 393.426,962.367 326.5,920C 319.958,914.618 313.291,909.452 306.5,904.5C 272.542,872.801 258.709,833.801 265,787.5C 268.139,779.217 272.973,772.217 279.5,766.5C 279.5,765.833 279.5,765.167 279.5,764.5C 285.576,763.944 291.076,761.944 296,758.5C 297.75,755.754 298.75,752.754 299,749.5C 299.431,740.625 300.265,731.792 301.5,723C 300.48,719.791 299.314,716.624 298,713.5C 287.657,697.406 279.157,680.572 272.5,663C 273.094,662.536 273.761,662.369 274.5,662.5C 280.588,676.673 287.754,690.34 296,703.5C 312.53,728.858 336.03,742.524 366.5,744.5C 411.39,750.921 454.724,745.421 496.5,728C 539.536,709.328 579.869,686.328 617.5,659C 628.953,649.724 637.953,638.557 644.5,625.5C 647.812,620.887 650.646,615.887 653,610.5C 658.329,598.676 663.162,586.676 667.5,574.5C 671.966,563.871 675.632,552.871 678.5,541.5C 678.833,541.667 679.167,541.833 679.5,542C 678.051,549.812 676.884,557.645 676,565.5C 677.4,568.902 679.567,571.736 682.5,574C 690.653,578.289 699.319,579.622 708.5,578C 716.826,575.67 724.493,572.003 731.5,567C 757.84,545.836 775.84,519.003 785.5,486.5C 788.597,479.232 790.764,471.565 792,463.5C 795.045,447.142 795.045,430.808 792,414.5C 790.503,408.002 787.337,402.502 782.5,398C 767.529,390.949 753.529,392.449 740.5,402.5C 732.731,406.487 725.898,411.821 720,418.5C 720.044,416.721 720.711,415.055 722,413.5C 724.018,411.65 725.851,409.65 727.5,407.5C 726.975,406.808 726.308,406.308 725.5,406C 725.728,405.601 726.062,405.435 726.5,405.5C 728.017,405.511 729.184,406.177 730,407.5C 732.913,404.913 736.08,402.746 739.5,401C 736.916,399.006 737.082,398.506 740,399.5C 744.108,397.529 748.275,395.696 752.5,394C 763.346,389.956 773.679,390.956 783.5,397C 786.109,399.783 788.776,402.283 791.5,404.5 Z"/></g>
<g><path style="opacity:1" fill="#bc7738" d="M 662.5,715.5 C 661.194,724.07 660.361,733.403 660,743.5C 659.333,755.833 659.333,768.167 660,780.5C 660.169,768.659 660.669,756.993 661.5,745.5C 661.032,760.93 661.532,776.263 663,791.5C 664.565,780.181 666.065,768.847 667.5,757.5C 678.94,763.772 687.44,772.772 693,784.5C 693.835,790.983 693.168,797.316 691,803.5C 684.17,822.835 674.503,840.501 662,856.5C 624.599,900.127 578.432,930.627 523.5,948C 458.373,965.077 396.706,956.744 338.5,923C 329.702,917.356 321.369,911.189 313.5,904.5C 313.5,904.167 313.5,903.833 313.5,903.5C 327.5,896.559 342.167,894.726 357.5,898C 360.672,899.752 363.672,901.752 366.5,904C 377.176,916.351 389.843,926.018 404.5,933C 408.761,934.363 413.095,934.696 417.5,934C 418.591,931.936 418.758,929.769 418,927.5C 414.581,917.089 411.915,906.423 410,895.5C 408.761,889.539 408.427,883.539 409,877.5C 415.636,871.866 421.969,865.866 428,859.5C 428.996,855.793 428.33,852.459 426,849.5C 418.723,843.626 413.39,836.292 410,827.5C 408.557,822.788 409.723,818.955 413.5,816C 423.957,810.968 434.957,807.634 446.5,806C 510.143,771.727 566.976,728.227 617,675.5C 622.579,668.929 627.746,662.095 632.5,655C 631.906,654.536 631.239,654.369 630.5,654.5C 638.207,646.758 644.707,638.091 650,628.5C 658.022,611.126 666.022,593.793 674,576.5C 676.333,578.167 678.667,579.833 681,581.5C 672.538,625.923 666.372,670.59 662.5,715.5 Z"/></g>
<g><path style="opacity:1" fill="#9e5316" d="M 630.5,654.5 C 631.239,654.369 631.906,654.536 632.5,655C 627.746,662.095 622.579,668.929 617,675.5C 566.976,728.227 510.143,771.727 446.5,806C 434.957,807.634 423.957,810.968 413.5,816C 409.723,818.955 408.557,822.788 410,827.5C 413.39,836.292 418.723,843.626 426,849.5C 428.33,852.459 428.996,855.793 428,859.5C 421.969,865.866 415.636,871.866 409,877.5C 408.427,883.539 408.761,889.539 410,895.5C 411.915,906.423 414.581,917.089 418,927.5C 418.758,929.769 418.591,931.936 417.5,934C 413.095,934.696 408.761,934.363 404.5,933C 389.843,926.018 377.176,916.351 366.5,904C 363.672,901.752 360.672,899.752 357.5,898C 342.167,894.726 327.5,896.559 313.5,903.5C 309.165,898.139 304.498,893.806 299.5,890.5C 278.852,867.42 267.852,840.254 266.5,809C 267.119,787.584 277.119,772.417 296.5,763.5C 297.809,767.649 297.809,771.649 296.5,775.5C 296.663,773.143 296.497,770.81 296,768.5C 295.105,778.146 294.605,787.812 294.5,797.5C 294.311,805.394 294.978,813.061 296.5,820.5C 296.833,820.5 297.167,820.5 297.5,820.5C 299.29,816.948 300.29,812.948 300.5,808.5C 300.709,802.142 300.376,795.809 299.5,789.5C 300.551,767.473 302.051,745.473 304,723.5C 315.098,734.47 328.265,741.97 343.5,746C 359.491,749.357 375.491,751.524 391.5,752.5C 395.449,753.741 405.449,753.908 421.5,753C 428.984,752.945 434.317,752.112 437.5,750.5C 460.191,746.774 482.191,740.274 503.5,731C 533.266,716.619 562.266,700.953 590.5,684C 604.274,674.721 617.607,664.888 630.5,654.5 Z"/></g>
<g><path style="opacity:1" fill="#d26c1e" d="M 437.5,750.5 C 434.317,752.112 428.984,752.945 421.5,753C 405.449,753.908 395.449,753.741 391.5,752.5C 406.869,752.554 422.202,751.887 437.5,750.5 Z"/></g>
<g><path style="opacity:0.741" fill="#f5a24f" d="M 662.5,715.5 C 662.01,725.494 661.677,735.494 661.5,745.5C 660.669,756.993 660.169,768.659 660,780.5C 659.333,768.167 659.333,755.833 660,743.5C 660.361,733.403 661.194,724.07 662.5,715.5 Z"/></g>
<g><path style="opacity:1" fill="#040800" d="M 139.5,963.5 C 123.8,1013.28 109.466,1063.61 96.5,1114.5C 95.3871,1113.05 95.2204,1111.39 96,1109.5C 101.787,1088.69 107.12,1067.69 112,1046.5C 118.04,1025.98 123.706,1005.32 129,984.5C 141.547,944.858 154.88,905.525 169,866.5C 174.274,852.615 181.108,839.615 189.5,827.5C 191.349,826.407 193.016,825.074 194.5,823.5C 194.833,823.833 195.167,824.167 195.5,824.5C 187.303,835.918 180.469,848.251 175,861.5C 162.856,895.416 151.023,929.416 139.5,963.5 Z"/></g>
<g><path style="opacity:1" fill="#111207" d="M 799.5,942.5 C 800.929,967.856 800.763,993.19 799,1018.5C 796.439,1013.38 793.939,1008.38 791.5,1003.5C 786.36,986.943 781.527,970.277 777,953.5C 773.512,937.064 770.678,920.564 768.5,904C 768.957,903.586 769.291,903.086 769.5,902.5C 765.202,876.589 764.536,850.589 767.5,824.5C 767.833,824.833 768.167,825.167 768.5,825.5C 787.105,862.252 797.439,901.252 799.5,942.5 Z"/></g>
<g><path style="opacity:1" fill="#1e1e17" d="M 706.5,765.5 C 708.5,766.167 710.5,766.833 712.5,767.5C 717.518,770.461 722.851,772.961 728.5,775C 731.893,779.17 733.726,784.004 734,789.5C 735.307,811.658 731.64,832.991 723,853.5C 698.911,905.923 661.411,945.757 610.5,973C 569.068,994.782 525.068,1007.78 478.5,1012C 406.429,1016.31 342.762,995.641 287.5,950C 279.906,942.911 272.906,935.411 266.5,927.5C 279.873,919.816 293.207,912.149 306.5,904.5C 313.291,909.452 319.958,914.618 326.5,920C 393.426,962.367 464.759,971.367 540.5,947C 577.251,932.472 610.251,912.139 639.5,886C 661.763,865.631 679.263,841.798 692,814.5C 696.767,804.534 699.267,794.034 699.5,783C 700.109,777.361 698.942,772.195 696,767.5C 689.23,760.731 681.397,755.565 672.5,752C 673.5,751.333 674.5,751.333 675.5,752C 685.859,756.515 696.193,761.015 706.5,765.5 Z"/></g>
<g><path style="opacity:1" fill="#040800" d="M 279.5,764.5 C 279.5,765.167 279.5,765.833 279.5,766.5C 271,770.281 262.333,773.781 253.5,777C 247.583,779.631 241.916,782.631 236.5,786C 230.227,795.485 226.727,805.985 226,817.5C 225.283,856.681 236.949,891.681 261,922.5C 262.704,924.373 264.537,926.04 266.5,927.5C 272.906,935.411 279.906,942.911 287.5,950C 342.762,995.641 406.429,1016.31 478.5,1012C 525.068,1007.78 569.068,994.782 610.5,973C 661.411,945.757 698.911,905.923 723,853.5C 731.64,832.991 735.307,811.658 734,789.5C 733.726,784.004 731.893,779.17 728.5,775C 722.851,772.961 717.518,770.461 712.5,767.5C 716.771,767.296 720.938,768.296 725,770.5C 725.333,770.167 725.667,769.833 726,769.5C 729.717,771.371 733.55,773.037 737.5,774.5C 747.166,780.482 757.833,785.315 769.5,789C 780.325,795.613 791.658,801.28 803.5,806C 804.337,807.011 804.67,808.178 804.5,809.5C 781.621,799.729 758.954,789.396 736.5,778.5C 739.501,795.378 739.001,812.378 735,829.5C 729.217,850.394 720.717,870.06 709.5,888.5C 697.05,906.698 682.716,923.365 666.5,938.5C 654.823,948.328 642.823,957.661 630.5,966.5C 618.536,973.484 606.203,979.984 593.5,986C 576.291,993.343 558.958,1000.18 541.5,1006.5C 541.083,1005.88 540.416,1005.54 539.5,1005.5C 530.706,1007.88 522.039,1010.22 513.5,1012.5C 456.565,1022.32 401.565,1015.99 348.5,993.5C 315.294,978.618 286.627,957.618 262.5,930.5C 237.916,901.771 224.249,868.437 221.5,830.5C 220.932,817.209 223.265,804.543 228.5,792.5C 228,792.167 227.5,791.833 227,791.5C 210.643,800.042 195.476,809.542 181.5,820C 171.731,826.109 161.731,831.776 151.5,837C 100.093,857.197 49.4263,879.364 -0.5,903.5C -0.5,902.167 -0.5,900.833 -0.5,899.5C 10.6575,895.051 21.6575,890.051 32.5,884.5C 33.9647,885.609 34.9647,885.109 35.5,883C 46.9586,876.955 58.6253,871.289 70.5,866C 94.7478,855.806 119.081,845.806 143.5,836C 156.131,829.339 168.798,822.673 181.5,816C 194.64,807.258 207.64,798.258 220.5,789C 228.409,786.563 235.742,783.063 242.5,778.5C 243.873,778.657 245.207,778.49 246.5,778C 257.032,772.402 268.032,767.902 279.5,764.5 Z"/></g>
<g><path style="opacity:1" fill="#d66f20" d="M 313.5,903.5 C 313.5,903.833 313.5,904.167 313.5,904.5C 308.5,900.167 303.833,895.5 299.5,890.5C 304.498,893.806 309.165,898.139 313.5,903.5 Z"/></g>
<g><path style="opacity:1" fill="#210b00" d="M 399.5,842.5 C 400.756,842.461 401.756,842.961 402.5,844C 401.002,844.585 400.002,844.085 399.5,842.5 Z"/></g>
<g><path style="opacity:1" fill="#100801" d="M 399.5,842.5 C 379.955,830.729 367.788,813.729 363,791.5C 371.539,811.189 383.706,828.189 399.5,842.5 Z"/></g>
<g><path style="opacity:1" fill="#cf6d1f" d="M 299.5,789.5 C 300.376,795.809 300.709,802.142 300.5,808.5C 300.29,812.948 299.29,816.948 297.5,820.5C 298.687,810.214 299.354,799.881 299.5,789.5 Z"/></g>
<g><path style="opacity:1" fill="#121309" d="M 279.5,766.5 C 272.973,772.217 268.139,779.217 265,787.5C 258.709,833.801 272.542,872.801 306.5,904.5C 293.207,912.149 279.873,919.816 266.5,927.5C 264.537,926.04 262.704,924.373 261,922.5C 236.949,891.681 225.283,856.681 226,817.5C 226.727,805.985 230.227,795.485 236.5,786C 241.916,782.631 247.583,779.631 253.5,777C 262.333,773.781 271,770.281 279.5,766.5 Z"/></g>
<g><path style="opacity:1" fill="#c5671c" d="M 296.5,775.5 C 296.5,790.5 296.5,805.5 296.5,820.5C 294.978,813.061 294.311,805.394 294.5,797.5C 294.605,787.812 295.105,778.146 296,768.5C 296.497,770.81 296.663,773.143 296.5,775.5 Z"/></g>
<g><path style="opacity:1" fill="#1d1d16" d="M 630.5,966.5 C 630.649,967.552 630.483,968.552 630,969.5C 575.084,1038.04 527.251,1111.04 486.5,1188.5C 373.5,1188.5 260.5,1188.5 147.5,1188.5C 152.036,1161.23 155.703,1133.56 158.5,1105.5C 159.552,1105.65 160.552,1105.48 161.5,1105C 160.267,1103.3 159.6,1101.3 159.5,1099C 160.133,1089 160.8,1079 161.5,1069C 161.492,1067.29 161.158,1065.79 160.5,1064.5C 162.182,1061.67 161.515,1060.17 158.5,1060C 159.668,1061.41 159.335,1062.57 157.5,1063.5C 158.428,1064.77 158.595,1066.1 158,1067.5C 155.019,1073.18 151.519,1073.68 147.5,1069C 148.815,1067.61 148.481,1066.61 146.5,1066C 149.028,1065.33 149.028,1064.5 146.5,1063.5C 145.555,1065.52 144.055,1065.85 142,1064.5C 138.865,1065.65 135.698,1066.65 132.5,1067.5C 132.36,1065.88 133.027,1064.71 134.5,1064C 132.156,1062.81 131.323,1060.98 132,1058.5C 134.336,1063.03 137.002,1063.37 140,1059.5C 142.096,1060.72 141.929,1061.55 139.5,1062C 141.027,1063.63 142.693,1063.8 144.5,1062.5C 145.248,1060.67 146.248,1059 147.5,1057.5C 145.543,1054.94 143.877,1055.27 142.5,1058.5C 140.792,1056.73 139.959,1054.73 140,1052.5C 140.333,1053.17 140.667,1053.83 141,1054.5C 142.182,1052.66 143.349,1050.82 144.5,1049C 143.728,1047.78 142.728,1046.78 141.5,1046C 142.191,1044.93 142.691,1043.77 143,1042.5C 143.333,1043.5 143.667,1044.5 144,1045.5C 144.113,1043.03 145.113,1041.03 147,1039.5C 148.25,1040.57 149.584,1040.57 151,1039.5C 151.5,1039.67 152,1039.83 152.5,1040C 151.07,1041.67 149.736,1042.67 148.5,1043C 148.613,1044.28 149.28,1045.11 150.5,1045.5C 152.394,1044.4 153.061,1043.07 152.5,1041.5C 154.35,1042.24 155.016,1043.24 154.5,1044.5C 155.192,1043.97 155.692,1043.31 156,1042.5C 156.471,1044.25 157.138,1045.91 158,1047.5C 158.523,1045.78 159.523,1044.44 161,1043.5C 164.865,1045.46 168.199,1048.13 171,1051.5C 172.667,1051.17 174.333,1050.83 176,1050.5C 176.456,1051.74 175.956,1052.58 174.5,1053C 175.416,1053.37 176.25,1053.87 177,1054.5C 177.667,1053.17 178.333,1051.83 179,1050.5C 183.637,1051.73 188.47,1052.89 193.5,1054C 192.562,1055.06 191.562,1056.23 190.5,1057.5C 191.853,1058.69 193.02,1060.02 194,1061.5C 194.149,1058.72 194.983,1058.22 196.5,1060C 196.043,1060.41 195.709,1060.91 195.5,1061.5C 198.058,1063.12 198.058,1064.62 195.5,1066C 198.809,1067.59 198.809,1069.59 195.5,1072C 195.833,1072.33 196.167,1072.67 196.5,1073C 193.456,1073.36 193.122,1074.03 195.5,1075C 193.109,1075.69 193.109,1076.69 195.5,1078C 193.842,1078.73 193.342,1079.89 194,1081.5C 195.113,1080.29 196.28,1080.29 197.5,1081.5C 196.79,1084.09 197.79,1086.09 200.5,1087.5C 201.842,1086.1 202.676,1086.43 203,1088.5C 203.5,1087.33 204.333,1086.5 205.5,1086C 201.826,1085.71 200.993,1084.21 203,1081.5C 203.667,1082.83 204.333,1082.83 205,1081.5C 206.299,1085.58 208.132,1086.08 210.5,1083C 210.167,1082.67 209.833,1082.33 209.5,1082C 212.127,1080.69 214.46,1079.02 216.5,1077C 214.395,1075.81 212.728,1074.14 211.5,1072C 212.833,1071.67 214.167,1071.33 215.5,1071C 213.405,1070.44 213.238,1069.94 215,1069.5C 216.261,1069.76 217.261,1070.43 218,1071.5C 219.79,1067.79 218.623,1066.79 214.5,1068.5C 213.3,1065.41 211.467,1062.74 209,1060.5C 206.324,1062.43 203.491,1063.6 200.5,1064C 201.75,1062.03 203.083,1060.86 204.5,1060.5C 203.711,1058.51 202.545,1058.18 201,1059.5C 198.935,1058.37 198.268,1056.71 199,1054.5C 199.741,1055.64 200.575,1055.64 201.5,1054.5C 202.333,1055.5 203.167,1056.5 204,1057.5C 204.492,1056.45 204.326,1055.45 203.5,1054.5C 206.066,1050.99 205.566,1050.66 202,1053.5C 202.325,1051.45 201.991,1049.45 201,1047.5C 203.095,1049.05 205.262,1049.38 207.5,1048.5C 206.96,1047.25 206.293,1046.09 205.5,1045C 207.787,1042.95 207.954,1040.79 206,1038.5C 204.06,1037.31 202.227,1037.31 200.5,1038.5C 201.263,1037.28 202.263,1036.28 203.5,1035.5C 202.529,1034.04 202.862,1032.7 204.5,1031.5C 205.931,1031.98 207.264,1032.64 208.5,1033.5C 207.494,1034.4 207.494,1035.06 208.5,1035.5C 209.287,1034.76 209.953,1033.92 210.5,1033C 209.167,1032 207.833,1031 206.5,1030C 207.833,1030 209.167,1030 210.5,1030C 209.289,1029.11 209.289,1028.27 210.5,1027.5C 211.386,1028.32 211.719,1029.32 211.5,1030.5C 212.5,1030.5 213.5,1030.5 214.5,1030.5C 214.281,1029.32 214.614,1028.32 215.5,1027.5C 216.696,1027.85 216.696,1028.35 215.5,1029C 218.257,1030.95 220.757,1030.79 223,1028.5C 224.609,1029.15 226.109,1029.98 227.5,1031C 225.156,1032.19 224.323,1034.02 225,1036.5C 225.923,1034.08 227.423,1032.08 229.5,1030.5C 230.799,1031.09 231.632,1032.09 232,1033.5C 233.281,1032.35 233.614,1032.69 233,1034.5C 232.259,1035.64 231.425,1035.64 230.5,1034.5C 227.649,1037.28 227.983,1039.62 231.5,1041.5C 230.583,1042.97 229.583,1044.47 228.5,1046C 229.416,1046.37 230.25,1046.87 231,1047.5C 233.209,1046.08 235.209,1044.41 237,1042.5C 240.757,1043.98 241.257,1043.32 238.5,1040.5C 239.718,1039.2 239.385,1038.2 237.5,1037.5C 239.113,1036.57 240.779,1035.74 242.5,1035C 241.216,1034.32 240.049,1034.48 239,1035.5C 237.066,1033.58 237.233,1032.08 239.5,1031C 238.398,1028.6 238.231,1026.1 239,1023.5C 240.566,1024.06 241.899,1023.39 243,1021.5C 244.011,1022.34 245.178,1022.67 246.5,1022.5C 246.343,1021.13 246.51,1019.79 247,1018.5C 249.599,1018.37 252.266,1018.37 255,1018.5C 255.483,1017.55 255.649,1016.55 255.5,1015.5C 256.552,1015.65 257.552,1015.48 258.5,1015C 257.476,1013.63 257.976,1012.8 260,1012.5C 262.257,1013.09 263.924,1014.42 265,1016.5C 266.016,1015.37 266.683,1015.7 267,1017.5C 267.352,1012.89 268.852,1012.39 271.5,1016C 270.549,1016.72 270.383,1017.55 271,1018.5C 273.57,1017.99 275.903,1016.99 278,1015.5C 278.004,1017.37 277.504,1019.2 276.5,1021C 277.098,1022.3 278.098,1023.13 279.5,1023.5C 280.711,1022.73 280.711,1021.89 279.5,1021C 280.715,1018.9 281.549,1019.07 282,1021.5C 282.833,1020 284,1018.83 285.5,1018C 285.043,1017.59 284.709,1017.09 284.5,1016.5C 285.522,1015.65 286.355,1014.65 287,1013.5C 287.333,1014.17 287.667,1014.83 288,1015.5C 288.401,1013.48 289.568,1012.15 291.5,1011.5C 292.23,1012.93 293.23,1014.1 294.5,1015C 293.833,1015.33 293.167,1015.67 292.5,1016C 295.553,1018.05 297.386,1020.88 298,1024.5C 299.198,1021.27 301.031,1018.44 303.5,1016C 301.729,1015.46 301.396,1014.63 302.5,1013.5C 304.245,1013.52 306.079,1013.19 308,1012.5C 309.057,1013.63 310.223,1014.13 311.5,1014C 310.289,1012.89 310.289,1011.72 311.5,1010.5C 310.752,1008.67 309.752,1007 308.5,1005.5C 310.236,1002.9 312.069,1002.9 314,1005.5C 315.204,1004.53 315.704,1003.53 315.5,1002.5C 316.429,1003.69 316.762,1005.02 316.5,1006.5C 317.873,1006.34 319.207,1006.51 320.5,1007C 321.37,1009.91 322.87,1012.41 325,1014.5C 326.337,1013.1 327.503,1011.6 328.5,1010C 326.718,1008.32 326.385,1006.49 327.5,1004.5C 329.134,1004.97 330.3,1005.97 331,1007.5C 331.645,1006.35 332.478,1005.35 333.5,1004.5C 332.242,1005.02 331.242,1004.35 330.5,1002.5C 329.325,1003.85 328.325,1003.69 327.5,1002C 328.649,1000.26 329.983,1000.09 331.5,1001.5C 333.864,998.476 336.197,995.476 338.5,992.5C 339.293,993.355 338.96,994.189 337.5,995C 339.074,995.699 340.407,995.365 341.5,994C 340.346,993.086 340.513,992.253 342,991.5C 344.118,993.363 346.284,994.03 348.5,993.5C 401.565,1015.99 456.565,1022.32 513.5,1012.5C 473.638,1044.44 432.638,1074.94 390.5,1104C 388.316,1106.02 386.316,1108.18 384.5,1110.5C 398.784,1110.87 412.117,1107.37 424.5,1100C 435.359,1093.32 445.359,1086.32 454.5,1079C 483.914,1056.26 512.747,1032.76 541,1008.5C 541.464,1007.91 541.631,1007.24 541.5,1006.5C 558.958,1000.18 576.291,993.343 593.5,986C 606.203,979.984 618.536,973.484 630.5,966.5 Z"/></g>
<g><path style="opacity:1" fill="#050901" d="M 1023.5,938.5 C 1023.5,941.167 1023.5,943.833 1023.5,946.5C 993.428,1024.78 972.095,1105.45 959.5,1188.5C 956.167,1188.5 952.833,1188.5 949.5,1188.5C 962.233,1135.24 976.066,1082.24 991,1029.5C 1000.57,998.63 1011.4,968.297 1023.5,938.5 Z"/></g>
<g><path style="opacity:1" fill="#111207" d="M 895.5,1188.5 C 892.5,1188.5 889.5,1188.5 886.5,1188.5C 884.766,1177.43 882.599,1166.43 880,1155.5C 870.36,1121.23 861.026,1086.9 852,1052.5C 846.74,1017.03 843.573,981.366 842.5,945.5C 842.506,922.297 842.34,898.964 842,875.5C 846.388,881.609 849.721,888.276 852,895.5C 856.965,910.66 861.298,925.994 865,941.5C 875.13,991.204 883.463,1041.2 890,1091.5C 893.558,1123.74 895.391,1156.08 895.5,1188.5 Z"/></g>
<g><path style="opacity:1" fill="#1d1e16" d="M 1023.5,946.5 C 1023.5,993.833 1023.5,1041.17 1023.5,1088.5C 1016.07,1110.69 1008.57,1133.02 1001,1155.5C 996.497,1166.51 991.997,1177.51 987.5,1188.5C 978.167,1188.5 968.833,1188.5 959.5,1188.5C 972.095,1105.45 993.428,1024.78 1023.5,946.5 Z"/></g>
<g><path style="opacity:1" fill="#040900" d="M 918.5,1188.5 C 916.833,1188.5 915.167,1188.5 913.5,1188.5C 916.336,1122.3 921.67,1056.3 929.5,990.5C 930.268,989.737 930.768,988.737 931,987.5C 932.594,994.726 932.928,1002.06 932,1009.5C 925.062,1068.98 920.562,1128.65 918.5,1188.5 Z"/></g>
<g><path style="opacity:1" fill="#111207" d="M 541.5,1006.5 C 541.631,1007.24 541.464,1007.91 541,1008.5C 512.747,1032.76 483.914,1056.26 454.5,1079C 445.359,1086.32 435.359,1093.32 424.5,1100C 412.117,1107.37 398.784,1110.87 384.5,1110.5C 386.316,1108.18 388.316,1106.02 390.5,1104C 432.638,1074.94 473.638,1044.44 513.5,1012.5C 522.039,1010.22 530.706,1007.88 539.5,1005.5C 540.416,1005.54 541.083,1005.88 541.5,1006.5 Z"/></g>
<g><path style="opacity:1" fill="#111308" d="M 945.5,1188.5 C 936.5,1188.5 927.5,1188.5 918.5,1188.5C 920.562,1128.65 925.062,1068.98 932,1009.5C 932.928,1002.06 932.594,994.726 931,987.5C 930.768,988.737 930.268,989.737 929.5,990.5C 929.756,988.208 929.423,986.041 928.5,984C 929.935,984.311 931.268,984.145 932.5,983.5C 934.194,985.554 935.361,987.888 936,990.5C 939.419,1019.11 942.419,1047.77 945,1076.5C 948.058,1113.83 948.224,1151.17 945.5,1188.5 Z"/></g>
<g><path style="opacity:1" fill="#111308" d="M 69.5,1188.5 C 57.5,1188.5 45.5,1188.5 33.5,1188.5C 33.2182,1184.43 32.5515,1180.43 31.5,1176.5C 32.6701,1124.48 39.5034,1073.15 52,1022.5C 56.0773,1009.68 61.7439,997.682 69,986.5C 70.1483,998.908 70.6483,1011.41 70.5,1024C 69.8992,1078.75 69.5659,1133.58 69.5,1188.5 Z"/></g>
<g><path style="opacity:1" fill="#040801" d="M -0.5,991.5 C 6.85747,1034.98 14.0241,1078.65 21,1122.5C 24.1812,1140.57 27.6812,1158.57 31.5,1176.5C 32.5515,1180.43 33.2182,1184.43 33.5,1188.5C 32.5,1188.5 31.5,1188.5 30.5,1188.5C 17.2304,1127.21 6.89704,1065.55 -0.5,1003.5C -0.5,999.5 -0.5,995.5 -0.5,991.5 Z"/></g>
<g><path style="opacity:1" fill="#1d1e17" d="M 96.5,1114.5 C 109.466,1063.61 123.8,1013.28 139.5,963.5C 158.093,965.711 176.427,964.544 194.5,960C 217.583,950.954 240.25,941.121 262.5,930.5C 286.627,957.618 315.294,978.618 348.5,993.5C 346.284,994.03 344.118,993.363 342,991.5C 340.513,992.253 340.346,993.086 341.5,994C 340.407,995.365 339.074,995.699 337.5,995C 338.96,994.189 339.293,993.355 338.5,992.5C 336.197,995.476 333.864,998.476 331.5,1001.5C 329.983,1000.09 328.649,1000.26 327.5,1002C 328.325,1003.69 329.325,1003.85 330.5,1002.5C 331.242,1004.35 332.242,1005.02 333.5,1004.5C 332.478,1005.35 331.645,1006.35 331,1007.5C 330.3,1005.97 329.134,1004.97 327.5,1004.5C 326.385,1006.49 326.718,1008.32 328.5,1010C 327.503,1011.6 326.337,1013.1 325,1014.5C 322.87,1012.41 321.37,1009.91 320.5,1007C 319.207,1006.51 317.873,1006.34 316.5,1006.5C 316.762,1005.02 316.429,1003.69 315.5,1002.5C 315.704,1003.53 315.204,1004.53 314,1005.5C 312.069,1002.9 310.236,1002.9 308.5,1005.5C 309.752,1007 310.752,1008.67 311.5,1010.5C 310.289,1011.72 310.289,1012.89 311.5,1014C 310.223,1014.13 309.057,1013.63 308,1012.5C 306.079,1013.19 304.245,1013.52 302.5,1013.5C 301.396,1014.63 301.729,1015.46 303.5,1016C 301.031,1018.44 299.198,1021.27 298,1024.5C 297.386,1020.88 295.553,1018.05 292.5,1016C 293.167,1015.67 293.833,1015.33 294.5,1015C 293.23,1014.1 292.23,1012.93 291.5,1011.5C 289.568,1012.15 288.401,1013.48 288,1015.5C 287.667,1014.83 287.333,1014.17 287,1013.5C 286.355,1014.65 285.522,1015.65 284.5,1016.5C 284.709,1017.09 285.043,1017.59 285.5,1018C 284,1018.83 282.833,1020 282,1021.5C 281.549,1019.07 280.715,1018.9 279.5,1021C 280.711,1021.89 280.711,1022.73 279.5,1023.5C 278.098,1023.13 277.098,1022.3 276.5,1021C 277.504,1019.2 278.004,1017.37 278,1015.5C 275.903,1016.99 273.57,1017.99 271,1018.5C 270.383,1017.55 270.549,1016.72 271.5,1016C 268.852,1012.39 267.352,1012.89 267,1017.5C 266.683,1015.7 266.016,1015.37 265,1016.5C 263.924,1014.42 262.257,1013.09 260,1012.5C 257.976,1012.8 257.476,1013.63 258.5,1015C 257.552,1015.48 256.552,1015.65 255.5,1015.5C 255.649,1016.55 255.483,1017.55 255,1018.5C 252.266,1018.37 249.599,1018.37 247,1018.5C 246.51,1019.79 246.343,1021.13 246.5,1022.5C 245.178,1022.67 244.011,1022.34 243,1021.5C 241.899,1023.39 240.566,1024.06 239,1023.5C 238.231,1026.1 238.398,1028.6 239.5,1031C 237.233,1032.08 237.066,1033.58 239,1035.5C 240.049,1034.48 241.216,1034.32 242.5,1035C 240.779,1035.74 239.113,1036.57 237.5,1037.5C 239.385,1038.2 239.718,1039.2 238.5,1040.5C 241.257,1043.32 240.757,1043.98 237,1042.5C 235.209,1044.41 233.209,1046.08 231,1047.5C 230.25,1046.87 229.416,1046.37 228.5,1046C 229.583,1044.47 230.583,1042.97 231.5,1041.5C 227.983,1039.62 227.649,1037.28 230.5,1034.5C 231.425,1035.64 232.259,1035.64 233,1034.5C 233.614,1032.69 233.281,1032.35 232,1033.5C 231.632,1032.09 230.799,1031.09 229.5,1030.5C 227.423,1032.08 225.923,1034.08 225,1036.5C 224.323,1034.02 225.156,1032.19 227.5,1031C 226.109,1029.98 224.609,1029.15 223,1028.5C 220.757,1030.79 218.257,1030.95 215.5,1029C 216.696,1028.35 216.696,1027.85 215.5,1027.5C 214.614,1028.32 214.281,1029.32 214.5,1030.5C 213.5,1030.5 212.5,1030.5 211.5,1030.5C 211.719,1029.32 211.386,1028.32 210.5,1027.5C 209.289,1028.27 209.289,1029.11 210.5,1030C 209.167,1030 207.833,1030 206.5,1030C 207.833,1031 209.167,1032 210.5,1033C 209.953,1033.92 209.287,1034.76 208.5,1035.5C 207.494,1035.06 207.494,1034.4 208.5,1033.5C 207.264,1032.64 205.931,1031.98 204.5,1031.5C 202.862,1032.7 202.529,1034.04 203.5,1035.5C 202.263,1036.28 201.263,1037.28 200.5,1038.5C 202.227,1037.31 204.06,1037.31 206,1038.5C 207.954,1040.79 207.787,1042.95 205.5,1045C 206.293,1046.09 206.96,1047.25 207.5,1048.5C 205.262,1049.38 203.095,1049.05 201,1047.5C 201.991,1049.45 202.325,1051.45 202,1053.5C 205.566,1050.66 206.066,1050.99 203.5,1054.5C 204.326,1055.45 204.492,1056.45 204,1057.5C 203.167,1056.5 202.333,1055.5 201.5,1054.5C 200.575,1055.64 199.741,1055.64 199,1054.5C 198.268,1056.71 198.935,1058.37 201,1059.5C 202.545,1058.18 203.711,1058.51 204.5,1060.5C 203.083,1060.86 201.75,1062.03 200.5,1064C 203.491,1063.6 206.324,1062.43 209,1060.5C 211.467,1062.74 213.3,1065.41 214.5,1068.5C 218.623,1066.79 219.79,1067.79 218,1071.5C 217.261,1070.43 216.261,1069.76 215,1069.5C 213.238,1069.94 213.405,1070.44 215.5,1071C 214.167,1071.33 212.833,1071.67 211.5,1072C 212.728,1074.14 214.395,1075.81 216.5,1077C 214.46,1079.02 212.127,1080.69 209.5,1082C 209.833,1082.33 210.167,1082.67 210.5,1083C 208.132,1086.08 206.299,1085.58 205,1081.5C 204.333,1082.83 203.667,1082.83 203,1081.5C 200.993,1084.21 201.826,1085.71 205.5,1086C 204.333,1086.5 203.5,1087.33 203,1088.5C 202.676,1086.43 201.842,1086.1 200.5,1087.5C 197.79,1086.09 196.79,1084.09 197.5,1081.5C 196.28,1080.29 195.113,1080.29 194,1081.5C 193.342,1079.89 193.842,1078.73 195.5,1078C 193.109,1076.69 193.109,1075.69 195.5,1075C 193.122,1074.03 193.456,1073.36 196.5,1073C 196.167,1072.67 195.833,1072.33 195.5,1072C 198.809,1069.59 198.809,1067.59 195.5,1066C 198.058,1064.62 198.058,1063.12 195.5,1061.5C 195.709,1060.91 196.043,1060.41 196.5,1060C 194.983,1058.22 194.149,1058.72 194,1061.5C 193.02,1060.02 191.853,1058.69 190.5,1057.5C 191.562,1056.23 192.562,1055.06 193.5,1054C 188.47,1052.89 183.637,1051.73 179,1050.5C 178.333,1051.83 177.667,1053.17 177,1054.5C 176.25,1053.87 175.416,1053.37 174.5,1053C 175.956,1052.58 176.456,1051.74 176,1050.5C 174.333,1050.83 172.667,1051.17 171,1051.5C 168.199,1048.13 164.865,1045.46 161,1043.5C 159.523,1044.44 158.523,1045.78 158,1047.5C 157.138,1045.91 156.471,1044.25 156,1042.5C 155.692,1043.31 155.192,1043.97 154.5,1044.5C 155.016,1043.24 154.35,1042.24 152.5,1041.5C 153.061,1043.07 152.394,1044.4 150.5,1045.5C 149.28,1045.11 148.613,1044.28 148.5,1043C 149.736,1042.67 151.07,1041.67 152.5,1040C 152,1039.83 151.5,1039.67 151,1039.5C 149.584,1040.57 148.25,1040.57 147,1039.5C 145.113,1041.03 144.113,1043.03 144,1045.5C 143.667,1044.5 143.333,1043.5 143,1042.5C 142.691,1043.77 142.191,1044.93 141.5,1046C 142.728,1046.78 143.728,1047.78 144.5,1049C 143.349,1050.82 142.182,1052.66 141,1054.5C 140.667,1053.83 140.333,1053.17 140,1052.5C 139.959,1054.73 140.792,1056.73 142.5,1058.5C 143.877,1055.27 145.543,1054.94 147.5,1057.5C 146.248,1059 145.248,1060.67 144.5,1062.5C 142.693,1063.8 141.027,1063.63 139.5,1062C 141.929,1061.55 142.096,1060.72 140,1059.5C 137.002,1063.37 134.336,1063.03 132,1058.5C 131.323,1060.98 132.156,1062.81 134.5,1064C 133.027,1064.71 132.36,1065.88 132.5,1067.5C 135.698,1066.65 138.865,1065.65 142,1064.5C 144.055,1065.85 145.555,1065.52 146.5,1063.5C 149.028,1064.5 149.028,1065.33 146.5,1066C 148.481,1066.61 148.815,1067.61 147.5,1069C 151.519,1073.68 155.019,1073.18 158,1067.5C 158.595,1066.1 158.428,1064.77 157.5,1063.5C 159.335,1062.57 159.668,1061.41 158.5,1060C 161.515,1060.17 162.182,1061.67 160.5,1064.5C 140.529,1104.4 123.862,1145.73 110.5,1188.5C 96.8333,1188.5 83.1667,1188.5 69.5,1188.5C 69.5659,1133.58 69.8992,1078.75 70.5,1024C 70.6483,1011.41 70.1483,998.908 69,986.5C 61.7439,997.682 56.0773,1009.68 52,1022.5C 39.5034,1073.15 32.6701,1124.48 31.5,1176.5C 27.6812,1158.57 24.1812,1140.57 21,1122.5C 14.0241,1078.65 6.85747,1034.98 -0.5,991.5C -0.5,967.833 -0.5,944.167 -0.5,920.5C 44.3011,906.322 89.8011,903.655 136,912.5C 136.667,914.167 136.667,915.833 136,917.5C 126.091,947.133 117.425,977.133 110,1007.5C 102.58,1045.02 95.9133,1082.69 90,1120.5C 89.3333,1126.5 89.3333,1132.5 90,1138.5C 92.2755,1130.51 94.4421,1122.51 96.5,1114.5 Z"/></g>
<g><path style="opacity:1" fill="#111207" d="M 666.5,938.5 C 668.225,938.843 668.725,939.843 668,941.5C 666.853,940.542 665.853,940.875 665,942.5C 643.241,975.92 621.907,1009.59 601,1043.5C 574.685,1091.64 548.852,1139.98 523.5,1188.5C 511.167,1188.5 498.833,1188.5 486.5,1188.5C 527.251,1111.04 575.084,1038.04 630,969.5C 630.483,968.552 630.649,967.552 630.5,966.5C 642.823,957.661 654.823,948.328 666.5,938.5 Z"/></g>
<g><path style="opacity:1" fill="#1d1e16" d="M -0.5,1003.5 C 6.89704,1065.55 17.2304,1127.21 30.5,1188.5C 20.1667,1188.5 9.83333,1188.5 -0.5,1188.5C -0.5,1126.83 -0.5,1065.17 -0.5,1003.5 Z"/></g>
<g><path style="opacity:1" fill="#111308" d="M 160.5,1064.5 C 161.158,1065.79 161.492,1067.29 161.5,1069C 160.8,1079 160.133,1089 159.5,1099C 159.6,1101.3 160.267,1103.3 161.5,1105C 160.552,1105.48 159.552,1105.65 158.5,1105.5C 155.703,1133.56 152.036,1161.23 147.5,1188.5C 135.167,1188.5 122.833,1188.5 110.5,1188.5C 123.862,1145.73 140.529,1104.4 160.5,1064.5 Z"/></g>
<g><path style="opacity:1" fill="#1e1e17" d="M 1023.5,1150.5 C 1023.5,1163.17 1023.5,1175.83 1023.5,1188.5C 1018.83,1188.5 1014.17,1188.5 1009.5,1188.5C 1013.2,1175.39 1017.87,1162.72 1023.5,1150.5 Z"/></g>
<g><path style="opacity:1" fill="#0f1106" d="M 1023.5,1088.5 C 1023.5,1109.17 1023.5,1129.83 1023.5,1150.5C 1017.87,1162.72 1013.2,1175.39 1009.5,1188.5C 1002.17,1188.5 994.833,1188.5 987.5,1188.5C 991.997,1177.51 996.497,1166.51 1001,1155.5C 1008.57,1133.02 1016.07,1110.69 1023.5,1088.5 Z"/></g>
</svg>
